<?xml version="1.0" encoding="utf-8"?>
<!-- Generator: Adobe Illustrator 26.0.0, SVG Export Plug-In . SVG Version: 6.00 Build 0)  -->
<svg version="1.1" id="Camada_1" xmlns="http://www.w3.org/2000/svg" xmlns:xlink="http://www.w3.org/1999/xlink" x="0px" y="0px"
	 viewBox="0 0 200 200" style="enable-background:new 0 0 200 200;" xml:space="preserve">
<style type="text/css">
	.st0{fill:#FFFFFF;}
</style>
<g>
	<g>
		<path class="st0" d="M180.3,46.2c0,9.3,0,18.5,0,27.8c0,1.1,0,2.1-0.1,3.2c-0.3,3.3-2.9,4.8-5.8,3.1c-5.2-3.1-10.4-6.3-15.6-9.5
			c-8-4.9-16-9.9-24.5-14c-4.9-2.3-10.1-3.5-15.3-4.6c-4.6-0.9-9.3-0.9-13.9-0.9C98,51.3,91,53,84.4,55.9
			c-11.3,5-20.8,12.2-27.7,22.5c-6.4,9.5-9.3,20.1-9.2,31.6c0.2,12.7,4.5,23.7,12.8,33.3c5.9,6.7,12.8,11.8,21.3,14.8
			c9,3.2,18.1,3.9,27.1,1.3c13.7-3.9,23.4-12.7,28.6-26c2.9-7.4,3.6-15.2,1.7-22.8c-2.6-10.2-8.4-18.2-18-23.1
			c-5.7-2.9-11.8-4.4-18.1-3.3c-11.5,1.9-20,7.6-23.2,19.7c-1,3.9-0.5,7.9-0.5,11.9c0,2.5,0.1,5.1,0,7.6c-0.1,3.2-2.7,5.1-5.6,3.7
			c-4.2-2-8.1-4.5-12.1-6.8c-1.4-0.8-2.8-1.7-4.3-2.4c-3.9-2-5.2-5.4-5.1-9.4c0.5-9.5,3-18.4,8.1-26.5c7-11.2,16.8-18.7,29.4-22.8
			c6.5-2.2,13.2-3.1,19.9-3c13.7,0.2,26,4.6,36.7,13.2c10,8,15.8,18.5,19.4,30.5c2.5,8.4,3,17,2.1,25.6c-1,10.8-4.7,20.9-10.4,30.1
			c-6.5,10.5-15.1,18.9-25.9,24.9c-6.4,3.6-13.2,6-20.4,7.3c-6.4,1.1-12.8,1.7-19.2,1.2c-15.7-1.3-29.6-7.1-41.9-17
			c-9.8-7.9-17-17.7-22.2-29c-3.2-7-5.3-14.4-6.4-22c-1-7.2-1.1-14.5-0.3-21.7c2.3-20.3,10.9-37.5,25.9-51.5
			c8-7.5,17.2-13.3,27.4-17.4c14-5.6,28.5-7.6,43.5-5.9c7.7,0.9,15.4,2.4,22.7,5.2c0.9,0.4,1.7,0.1,2.4-0.3
			c5.1-2.7,10.3-5.5,15.4-8.2c5.4-2.9,10.9-5.7,16.4-8.5c3-1.5,5.3,0.1,5.3,3.4C180.3,26.1,180.3,36.2,180.3,46.2
			C180.3,46.2,180.3,46.2,180.3,46.2z"/>
	</g>
</g>
</svg>
