<?xml version="1.0" encoding="utf-8"?>
<!-- Generator: Adobe Illustrator 26.0.0, SVG Export Plug-In . SVG Version: 6.00 Build 0)  -->
<svg version="1.1" id="Camada_1" xmlns="http://www.w3.org/2000/svg" xmlns:xlink="http://www.w3.org/1999/xlink" x="0px" y="0px"
	 viewBox="0 0 200 200" enable-background="new 0 0 200 200" xml:space="preserve">
<g>
	<g>
		<path fill="#017CFE" d="M180.34,46.25c0,9.26,0,18.53,0,27.79c0,1.07,0.03,2.14-0.07,3.2c-0.32,3.34-2.94,4.75-5.79,3.05
			c-5.23-3.12-10.41-6.34-15.61-9.51c-8.03-4.88-15.98-9.9-24.47-13.96c-4.87-2.33-10.07-3.51-15.35-4.56
			c-4.61-0.92-9.26-0.92-13.86-0.94C98,51.3,91.04,52.99,84.41,55.91C73.11,60.88,63.6,68.1,56.69,78.43
			c-6.38,9.54-9.31,20.1-9.17,31.61c0.15,12.73,4.49,23.71,12.83,33.25c5.88,6.74,12.83,11.75,21.32,14.8
			c8.97,3.22,18.09,3.89,27.11,1.3c13.66-3.93,23.4-12.69,28.61-26.04c2.89-7.39,3.58-15.17,1.67-22.85
			c-2.56-10.24-8.44-18.19-18.01-23.12c-5.7-2.94-11.77-4.38-18.09-3.31c-11.48,1.94-20.04,7.63-23.15,19.72
			c-1,3.88-0.52,7.95-0.54,11.93c-0.01,2.53,0.06,5.07,0,7.6c-0.08,3.24-2.68,5.15-5.58,3.74c-4.15-2.03-8.09-4.51-12.12-6.81
			c-1.43-0.81-2.81-1.7-4.27-2.44c-3.88-1.99-5.25-5.42-5.06-9.44c0.45-9.49,3-18.42,8.06-26.52c6.98-11.18,16.85-18.66,29.37-22.82
			c6.51-2.17,13.17-3.08,19.94-3c13.71,0.17,25.97,4.63,36.69,13.2c9.97,7.96,15.84,18.49,19.44,30.55
			c2.51,8.42,2.97,17.03,2.15,25.59c-1.03,10.78-4.68,20.85-10.41,30.14c-6.5,10.53-15.09,18.86-25.86,24.89
			c-6.37,3.56-13.17,6.04-20.41,7.31c-6.37,1.12-12.75,1.74-19.2,1.21c-15.72-1.3-29.61-7.09-41.87-16.99
			c-9.77-7.89-17.01-17.68-22.16-29.03c-3.18-7.01-5.3-14.37-6.4-22.03c-1.04-7.23-1.15-14.46-0.33-21.68
			c2.32-20.31,10.9-37.49,25.88-51.49c8.05-7.53,17.2-13.28,27.4-17.38c13.99-5.61,28.52-7.64,43.48-5.85
			c7.72,0.92,15.39,2.39,22.71,5.2c0.95,0.36,1.68,0.08,2.45-0.33c5.15-2.73,10.29-5.49,15.45-8.2c5.44-2.86,10.87-5.73,16.36-8.47
			c2.97-1.48,5.33,0.1,5.33,3.37c0.01,10.06,0,20.13,0,30.19C180.31,46.25,180.33,46.25,180.34,46.25z"/>
	</g>
</g>
</svg>
