<?xml version="1.0" encoding="utf-8"?>
<!-- Generator: Adobe Illustrator 26.0.0, SVG Export Plug-In . SVG Version: 6.00 Build 0)  -->
<svg version="1.1" id="Camada_1" xmlns="http://www.w3.org/2000/svg" xmlns:xlink="http://www.w3.org/1999/xlink" x="0px" y="0px"
	 viewBox="0 0 1242 480" style="enable-background:new 0 0 1242 480;" xml:space="preserve">
<style type="text/css">
	.st0{fill:#017BFE;}
	.st1{fill:#242932;}
</style>
<g>
	<g>
		<path class="st0" d="M424.8,101.7c0,23.8,0,47.7,0,71.5c0,3-0.1,6-0.5,9c-1.2,8.7-6.9,11.4-14.6,6.8c-8.7-5.2-17.3-10.5-25.9-15.7
			c-25-15-49.3-31.1-75.7-43.7c-13.1-6.2-27.1-9.6-41.4-11.7c-12.2-1.8-24.4-2.8-36.7-2.1c-20.4,1.2-39.4,7.1-57.5,16.2
			C149,143.9,129,160.2,114,181.9c-18.2,26.5-26.3,55.9-24.2,88.1c3.1,48,27.4,82.8,67.9,106.7c21.5,12.7,45.4,17.4,70.4,14.3
			c44.9-5.6,84.4-38.9,92.6-87.8c5.3-31.8-2.8-60.3-26.7-82.6c-18.1-16.9-39.9-25.7-65.2-21.8c-25.4,4-45.5,15.8-55.3,41.2
			c-2.2,5.8-3.6,11.8-3.6,18c0,12.3-0.3,24.7,0.1,37c0.4,10.9-8.3,16.6-18,11c-14.2-8.1-28.4-16.3-42.4-24.8
			c-8.1-4.9-9.6-13.4-9.1-21.9c3-48.5,24.2-86.5,66.1-112.1c29.2-17.8,61.1-23.1,94.8-19.4c38.6,4.2,70.9,21.1,96.1,50.5
			c19,22.2,30.1,48.4,34.7,77.5c5.7,35.8,1,70.2-14.2,103c-18.2,39.4-46.5,69.1-85.7,88c-18.9,9.1-39,14.3-60.1,16.3
			c-28.6,2.7-56.3-0.9-83-11.2c-28.3-10.8-52.9-27.4-73.6-49.6c-25.3-27.4-41.9-59.4-50-95.8c-4.8-21.7-5.6-43.7-3.8-66
			c2.7-32.1,11.9-62.1,28.8-89.6c21.6-35.2,51.1-62,87.7-80.9c20.9-10.8,43.2-18,66.4-21.7c26.6-4.3,53.2-3.7,79.8,1.4
			c13.5,2.6,26.9,5.3,39.8,10.1c2.5,1,4.9,0.1,7.1-1.1c24.9-13.1,49.8-26.3,74.7-39.4c1.5-0.8,2.9-1.6,4.4-2.3
			c7.9-3.9,14.1-0.2,14.1,8.5c0.1,18.7,0.1,37.3,0.1,56c0,6.7,0,13.3,0,20C424.7,101.7,424.8,101.7,424.8,101.7z"/>
		<path class="st1" d="M1119.5,210.6c0,24.8-0.1,49.6,0.1,74.5c0,4.1-1.1,5.6-5.2,5.1c-3.3-0.4-6.7-0.2-10,0.1
			c-4.4,0.3-8.2,0.2-8.4-5.7c0-2.1-1.1-2.8-2.8-1.2c-13.2,12.1-28.8,10.3-43.9,6c-13.6-3.9-21.2-15-24.6-28.4
			c-5.1-20.3-4.5-40.2,7.8-58.2c7.3-10.7,18.2-15.7,30.8-16.8c8-0.7,15.9-0.3,23.8,1.7c5.8,1.4,6.4,0.2,6.3-5.9
			c-0.3-16.1,0-32.2-0.1-48.3c0-2.2,1.1-2.9,3.1-2.9c6.5,0,13,0.1,19.5-0.1c3.8-0.1,3.2,2.4,3.2,4.7c0.1,22.2,0.1,44.3,0.2,66.5
			c0,3,0,6,0,9C1119.3,210.6,1119.4,210.6,1119.5,210.6z M1092.7,239c0.1,0,0.2,0,0.2,0c0-7.7-0.3-15.3,0.1-23
			c0.2-4.1-1.8-5.8-4.9-6.6c-7.3-1.8-14.8-1.8-22.3-1c-5.9,0.6-10.2,4.2-12.7,9.7c-6.1,13.4-5.8,27-1.5,40.7c1.6,5,5.1,8.6,10.4,9.4
			c9.2,1.4,18.5,1.1,27.6-0.9c2.5-0.6,3-2.4,3-4.9C1092.7,254.6,1092.7,246.8,1092.7,239z"/>
		<path class="st0" d="M514,162.3c0,8.7,0.3,17.3-0.1,26c-0.2,4.5,1.4,4.8,5,3.4c7.4-2.9,15.1-5.3,23.1-5.7
			c21.5-1,37,10.7,41.1,31.9c3.2,16.3,2.9,32.8-3.4,48.6c-6.4,16.2-18.7,24.2-36,25.5c-12.9,1-25.5-1-38.1-3.4
			c-3.7-0.7-7.6-1.7-11.3-1.5c-4.9,0.2-5.5-2-5.5-6.2c0.2-33.5,0.1-67,0.2-100.5c0-14.7,0.1-29.3,0-44c0-3.8,1.1-4.8,4.8-4.7
			c5.5,0.2,11,0.1,16.5-0.4c3.4-0.3,3.9,0.9,3.8,3.9C514,144.3,514.1,153.3,514,162.3C514,162.3,514,162.3,514,162.3z M558,237.2
			c0.4-5.4-0.4-11.4-2.8-17.2c-2.1-4.9-5.5-8.6-10.6-9.8c-9.1-2.3-18-0.7-26.6,3.2c-1.9,0.9-3,2-3.3,4.4
			c-1.5,15.6-0.2,31.3-0.8,46.9c-0.1,2.8,2.2,3,4.1,3.3c4.9,0.7,9.9,1.6,14.8,1.6c8-0.1,16.2-0.5,20.7-8.9
			C557.5,253.6,558.3,245.9,558,237.2z"/>
		<path class="st1" d="M785.8,196.5c0,12.3,0.1,24.7,0,37c0,3.3,0.5,5.2,4.6,4.9c3.7-0.3,8.6-2,11,0.4c2.3,2.4,0.6,7.3,0.6,11.1
			c0.1,10.6,0,10.8-10.5,10.7c-4.2,0-5.9,1-5.6,5.6c0.4,7,0,14,0.2,21c0.1,2.8-0.3,4.2-3.7,4c-5.6-0.3-11.3-0.2-17,0
			c-2.6,0.1-3.5-0.8-3.4-3.4c0.2-7.5-0.2-15,0.5-22.5c0.5-4.8-1.4-5.1-5.1-5c-15.7,0.3-31.3,0.2-47,0.8c-4.9,0.2-6.3-1.7-6.5-6.1
			c-0.4-10.3,2-19.6,7.9-28.2c13.4-19.5,27.6-38.5,39.1-59.3c1.7-3,3.7-5.9,4.9-9.1c1.4-3.6,3.7-4.5,7.3-4.3
			c6.1,0.4,12.3,0.5,18.5,0.3c3.4-0.1,4.6,0.7,4.5,4.3c-0.2,12.7-0.1,25.3-0.1,38C786,196.5,785.9,196.5,785.8,196.5z M761.7,214.1
			c0-6.2,0-12.3,0-18.5c0-0.9,0.5-2.1-1-2.4c-1.4-0.3-1.5,1.1-1.9,1.9c-1.8,3.3-3.2,6.8-5.2,10c-6,9.5-12.1,19-18.3,28.3
			c-0.9,1.3-1.8,2.7-1.1,4c0.7,1.2,2.4,0.5,3.7,0.5c6,0.1,12-0.3,18,0.2c4.6,0.4,5.7-1.7,5.7-5.6
			C761.7,226.4,761.7,220.2,761.7,214.1z"/>
		<path class="st0" d="M657.7,247.1c-9.5,0-19,0.1-28.5-0.1c-3.6-0.1-5,0.7-4.5,4.7c1.2,9.3,6.6,14.7,16,16.3
			c10.7,1.8,21.3,0.8,31.8-0.8c4.3-0.7,7.3,0.1,9.7,3.9c2,3.1,4.3,5.9,6.8,8.6c2.3,2.5,2.5,4-1,5.3c-15.6,5.6-31.5,9.1-48.3,7.4
			c-13.3-1.3-25-5.6-33.1-16.7c-8.6-11.7-10.2-25.4-9.2-39.4c0.7-10,2.7-19.6,7.7-28.6c9.9-17.9,31.5-24.9,50.2-22.3
			c22,3,34.6,20.1,35.9,40.8c0.4,5.7,0.4,11.3,0.3,17c-0.1,3-1.1,4-4.2,3.9C677.3,247,667.5,247.1,657.7,247.1z M644.3,228.1
			c0,0.3,0,0.5,0,0.8c5.6,0,11.3-0.1,16.9,0c3,0.1,4.2-1.1,3.9-4.1c-1.4-14-11.1-21-25.6-16.2c-7.4,2.4-13,7.2-14.5,15.4
			c-0.5,2.7-0.1,4.4,3.4,4.2C633.7,227.8,639,228.1,644.3,228.1z"/>
		<path class="st1" d="M1194.9,247.8c-9.7,0-19.3,0.2-29-0.1c-3.5-0.1-4.2,1.2-3.9,4.3c0.7,9.3,8.2,16.4,18.3,17
			c10.5,0.6,20.9,0.2,30.8-4c2.1-0.9,3.2-0.2,4.1,1.3c2.7,4.3,5.3,8.8,8,13.2c1.8,3-0.9,3.8-2.6,4.7c-6.5,3.7-13.6,5.9-21,7.3
			c-11.4,2.3-22.8,2.2-34-1c-14-4-23.6-13.1-27.9-27.1c-5.2-17-5.1-34,1.1-50.7c6.1-16.4,19.1-23.9,35.4-26.7c9.5-1.6,19-0.9,28,2.4
			c16.1,5.8,24,18.1,25.5,34.7c0.7,7.1,0.1,14.3,0.2,21.5c0,2.4-0.8,3.2-3.2,3.2c-10-0.1-20,0-30,0
			C1194.9,247.7,1194.9,247.8,1194.9,247.8z M1182.4,228.9c0,0,0-0.1,0-0.1c5.8,0,11.6-0.1,17.4,0.1c2.4,0.1,3-0.7,3-3.1
			c0-10.6-5-17.8-15.4-19.2c-14.7-2-22.1,2.8-25.2,18.6c-0.5,2.6,0.2,4,3.3,3.9C1171.1,228.8,1176.8,228.9,1182.4,228.9z"/>
		<path class="st1" d="M1010.4,238.1c-0.2,10.3-1.3,20.5-6.1,29.9c-8.1,15.8-21.7,23.2-38.6,24.9c-8.9,0.9-17.9,0.3-26.4-3
			c-17-6.7-25-20.2-28.2-37.4c-2-11-1.3-22,1.4-32.6c5.7-23,21.3-33,44.1-34.7c18.1-1.4,34.4,3,45.2,19.3
			C1008.4,214.6,1010.5,226.1,1010.4,238.1z M936.8,238.7c0.2,3.8,0.2,7.7,0.6,11.4c0.3,2.3,1.1,4.5,1.9,6.6
			c2.8,7.8,9.3,12.7,17.5,13c9.2,0.3,17.8-1.3,22-10.8c5.7-13,6.1-26.4,1.1-39.9c-2.9-7.8-9.3-10.9-16.7-11.7
			c-8-0.8-15.7,0.7-20.8,7.6C937.3,222,936.7,230.3,936.8,238.7z"/>
		<path class="st1" d="M868.3,293.1c-8.5-0.2-15.8-1.1-22.9-3.8c-17.6-6.6-24.9-20.7-27.4-38.1c-1.4-10-1-20,1.5-29.7
			c5.7-22.4,21.6-32.5,42.9-35.5c12.7-1.8,25.1-0.6,36.7,5.7c3.4,1.8,3.9,3.5,2,6.8c-2.3,3.8-4.1,7.9-5.8,12.1
			c-1.1,2.8-2.3,3-4.7,1.7c-8-4.1-16.7-4.1-25.3-3.2c-12,1.3-19.6,10.1-21.1,24.5c-0.7,6.4-0.4,12.9,1.6,19.2
			c3.2,10,9.5,15.3,19.8,16c8.4,0.6,16.7-0.1,24.4-3.6c2.8-1.3,4.2-0.5,5.4,1.9c2,3.8,4,7.6,6.3,11.3c1.9,3.1,1.3,4.9-1.9,6.7
			C889.6,290.7,878.7,292.8,868.3,293.1z"/>
	</g>
</g>
</svg>
