<svg xmlns="http://www.w3.org/2000/svg" xmlns:xlink="http://www.w3.org/1999/xlink" viewBox="0 0 682.67 682.67" xml:space="preserve"><path fill="none" stroke="#007BFF" stroke-width="26.6666" stroke-linecap="round" stroke-linejoin="round" stroke-miterlimit="13.333" d="M440.661 623.392H46.541M103.52 623.387l50.373-110.72"/><g transform="matrix(1.33333 0 0 -1.33333 0 682.667)"><defs><path id="a" d="M-85.33-85.33h682.67v682.67H-85.33z"/></defs><clipPath id="b"><use xlink:href="#a" overflow="visible"/></clipPath><g clip-path="url(#b)"><path fill="none" stroke="#007BFF" stroke-width="20" stroke-linecap="round" stroke-linejoin="round" stroke-miterlimit="13.333" d="m238.14 44.46-22.2 46.09a9.507 9.507 0 0 1-8.57 5.39h-49.34a9.53 9.53 0 0 1-8.57-5.39l-22.2-46.09M249.98 127.5l37.78-83.04M7.5 159.598v137.67M357.9 249.11v55.38M7.5 332.27v48.54a7.55 7.55 0 0 0 7.55 7.55h304.64M357.9 150.33v-15.28a7.55 7.55 0 0 0-7.55-7.55H15.05a7.55 7.55 0 0 0-7.55 7.55v29.98h329.79M182.7 301.79c-33.71 0-63.62-14.65-82.4-37.27a8.9 8.9 0 0 1 0-11.34c18.78-22.62 48.69-37.26 82.4-37.26s63.62 14.65 82.4 37.27a8.9 8.9 0 0 1 0 11.34c-18.78 22.61-48.69 37.26-82.4 37.26z"/><path fill="none" stroke="#007BFF" stroke-width="20" stroke-linecap="round" stroke-linejoin="round" stroke-miterlimit="13.333" d="M168.016 300.843c-17.35-6.07-29.8-22.57-29.8-41.99s12.45-35.92 29.8-41.99M197.386 216.864c17.35 6.07 29.8 22.57 29.8 41.99s-12.45 35.92-29.8 41.99M182.7 339.44v-7.29M237.3 323.197l2.98 2.98M128.102 323.197l-2.98 2.98M394.94 205.64c-3.32 41.07-36.75 48.76-82.55 46.07-3.7-.22-6.67-3.19-6.88-6.89-2.69-45.79 5-79.22 46.06-82.55M414.21 112.11l-15.19 15.19M429.92 158.2l60.22-60.23a4.985 4.985 0 0 0 0-7.07l-23.83-23.83a5.003 5.003 0 0 0-7.07 0l-20.29 20.29"/><path fill="none" stroke="#007BFF" stroke-width="20" stroke-linecap="round" stroke-linejoin="round" stroke-miterlimit="13.333" d="m384.847 123.383-31.51 31.51c-2.83 2.83-2.83 7.42 0 10.26l38.73 38.73a7.26 7.26 0 0 0 10.26 0l31.51-31.51c2.83-2.83 2.83-7.42 0-10.26l-38.73-38.73c-2.84-2.83-7.43-2.83-10.26 0zM365.195 430.292h93.8M365.195 396.214h93.8M365.195 362.136h45.46M485.815 467.544h-147.44c-10.32 0-18.68-8.37-18.68-18.69v-105.29c0-7.39 4.29-13.76 10.52-16.79 3.13-1.52 5.2-4.59 5.2-8.07v-23.48c0-5.33 6.53-7.89 10.15-3.99l26.66 28.65c2.97 3.19 7.13 5 11.49 5h102.1c10.32 0 18.69 8.37 18.69 18.69v105.29c0 10.32-8.37 18.68-18.69 18.68z"/></g></g></svg>