<?xml version="1.0" encoding="utf-8"?>
<!-- Generator: Adobe Illustrator 26.0.0, SVG Export Plug-In . SVG Version: 6.00 Build 0)  -->
<svg version="1.1" id="svg2955" xmlns:svg="http://www.w3.org/2000/svg"
	 xmlns="http://www.w3.org/2000/svg" xmlns:xlink="http://www.w3.org/1999/xlink" x="0px" y="0px" viewBox="0 0 682.67 682.67"
	 style="enable-background:new 0 0 682.67 682.67;" xml:space="preserve">
<g id="g2961" transform="matrix(1.3333333,0,0,-1.3333333,0,682.66667)">
	<g id="g2963" transform="translate(330.4961,44.4561)">
		
			<path id="path2965" style="fill:none;stroke:#007BFF;stroke-width:20;stroke-linecap:round;stroke-linejoin:round;stroke-miterlimit:13.3333;" d="
			M0,0h-295.59"/>
	</g>
	<g id="g2967" transform="translate(77.6401,44.46)">
		
			<path id="path2969" style="fill:none;stroke:#007BFF;stroke-width:20;stroke-linecap:round;stroke-linejoin:round;stroke-miterlimit:13.3333;" d="
			M0,0l37.78,83.04"/>
	</g>
	<g id="g2971">
		<g>
			<defs>
				<rect id="SVGID_1_" x="-85.33" y="-85.33" width="682.67" height="682.67"/>
			</defs>
			<clipPath id="SVGID_00000064313026664625914340000016576369130038186895_">
				<use xlink:href="#SVGID_1_"  style="overflow:visible;"/>
			</clipPath>
			<g id="g2973" style="clip-path:url(#SVGID_00000064313026664625914340000016576369130038186895_);">
				<g id="g2979" transform="translate(238.1401,44.46)">
					
						<path id="path2981" style="fill:none;stroke:#007BFF;stroke-width:20;stroke-linecap:round;stroke-linejoin:round;stroke-miterlimit:13.3333;" d="
						M0,0l-22.2,46.09c-1.58,3.29-4.91,5.39-8.57,5.39h-49.34c-3.65,0-6.98-2.1-8.57-5.39L-110.88,0"/>
				</g>
				<g id="g2983" transform="translate(249.98,127.5)">
					
						<path id="path2985" style="fill:none;stroke:#007BFF;stroke-width:20;stroke-linecap:round;stroke-linejoin:round;stroke-miterlimit:13.3333;" d="
						M0,0l37.78-83.04"/>
				</g>
				<g id="g2987" transform="translate(7.5,159.5977)">
					
						<path id="path2989" style="fill:none;stroke:#007BFF;stroke-width:20;stroke-linecap:round;stroke-linejoin:round;stroke-miterlimit:13.3333;" d="
						M0,0v137.67"/>
				</g>
				<g id="g2991" transform="translate(357.8999,249.1104)">
					
						<path id="path2993" style="fill:none;stroke:#007BFF;stroke-width:20;stroke-linecap:round;stroke-linejoin:round;stroke-miterlimit:13.3333;" d="
						M0,0v55.38"/>
				</g>
				<g id="g2995" transform="translate(7.5,332.2695)">
					
						<path id="path2997" style="fill:none;stroke:#007BFF;stroke-width:20;stroke-linecap:round;stroke-linejoin:round;stroke-miterlimit:13.3333;" d="
						M0,0v48.54c0,4.17,3.38,7.55,7.55,7.55h304.64"/>
				</g>
				<g id="g2999" transform="translate(357.8999,150.3301)">
					
						<path id="path3001" style="fill:none;stroke:#007BFF;stroke-width:20;stroke-linecap:round;stroke-linejoin:round;stroke-miterlimit:13.3333;" d="
						M0,0v-15.28c0-4.17-3.38-7.55-7.55-7.55h-335.3c-4.17,0-7.55,3.38-7.55,7.55V14.7h329.79"/>
				</g>
				<g id="g3003" transform="translate(182.7007,301.79)">
					
						<path id="path3005" style="fill:none;stroke:#007BFF;stroke-width:20;stroke-linecap:round;stroke-linejoin:round;stroke-miterlimit:13.3333;" d="
						M0,0c-33.71,0-63.62-14.65-82.4-37.27c-2.72-3.28-2.72-8.06,0-11.34C-63.62-71.23-33.71-85.87,0-85.87s63.62,14.65,82.4,37.27
						c2.72,3.28,2.72,8.06,0,11.34C63.62-14.65,33.71,0,0,0z"/>
				</g>
				<g id="g3007" transform="translate(168.0156,300.8428)">
					
						<path id="path3009" style="fill:none;stroke:#007BFF;stroke-width:20;stroke-linecap:round;stroke-linejoin:round;stroke-miterlimit:13.3333;" d="
						M0,0c-17.35-6.07-29.8-22.57-29.8-41.99c0-19.42,12.45-35.92,29.8-41.99"/>
				</g>
				<g id="g3011" transform="translate(197.3857,216.8643)">
					
						<path id="path3013" style="fill:none;stroke:#007BFF;stroke-width:20;stroke-linecap:round;stroke-linejoin:round;stroke-miterlimit:13.3333;" d="
						M0,0c17.35,6.07,29.8,22.57,29.8,41.99c0,19.42-12.45,35.92-29.8,41.99"/>
				</g>
				<g id="g3015" transform="translate(182.7007,339.4404)">
					
						<path id="path3017" style="fill:none;stroke:#007BFF;stroke-width:20;stroke-linecap:round;stroke-linejoin:round;stroke-miterlimit:13.3333;" d="
						M0,0v-7.29"/>
				</g>
				<g id="g3019" transform="translate(237.2993,323.1973)">
					
						<path id="path3021" style="fill:none;stroke:#007BFF;stroke-width:20;stroke-linecap:round;stroke-linejoin:round;stroke-miterlimit:13.3333;" d="
						M0,0l2.98,2.98"/>
				</g>
				<g id="g3023" transform="translate(128.1025,323.1973)">
					
						<path id="path3025" style="fill:none;stroke:#007BFF;stroke-width:20;stroke-linecap:round;stroke-linejoin:round;stroke-miterlimit:13.3333;" d="
						M0,0l-2.98,2.98"/>
				</g>
				<g id="g3027" transform="translate(394.9399,205.6396)">
					
						<path id="path3029" style="fill:none;stroke:#007BFF;stroke-width:20;stroke-linecap:round;stroke-linejoin:round;stroke-miterlimit:13.3333;" d="
						M0,0c-3.32,41.07-36.75,48.76-82.55,46.07c-3.7-0.22-6.67-3.19-6.88-6.89c-2.69-45.79,5-79.22,46.06-82.55"/>
				</g>
				<g id="g3031" transform="translate(414.21,112.1104)">
					
						<path id="path3033" style="fill:none;stroke:#007BFF;stroke-width:20;stroke-linecap:round;stroke-linejoin:round;stroke-miterlimit:13.3333;" d="
						M0,0l-15.19,15.19"/>
				</g>
				<g id="g3035" transform="translate(429.9199,158.2002)">
					
						<path id="path3037" style="fill:none;stroke:#007BFF;stroke-width:20;stroke-linecap:round;stroke-linejoin:round;stroke-miterlimit:13.3333;" d="
						M0,0l60.22-60.23c1.96-1.95,1.96-5.12,0-7.07L36.39-91.13c-1.95-1.95-5.11-1.95-7.07,0L9.03-70.84"/>
				</g>
				<g id="g3039" transform="translate(384.8472,123.3828)">
					
						<path id="path3041" style="fill:none;stroke:#007BFF;stroke-width:20;stroke-linecap:round;stroke-linejoin:round;stroke-miterlimit:13.3333;" d="
						M0,0l-31.51,31.51c-2.83,2.83-2.83,7.42,0,10.26L7.22,80.5c2.83,2.83,7.43,2.83,10.26,0l31.51-31.51
						c2.83-2.83,2.83-7.42,0-10.26L10.26,0C7.42-2.83,2.83-2.83,0,0z"/>
				</g>
				<g id="g3043" transform="translate(365.1953,430.292)">
					
						<path id="path3045" style="fill:none;stroke:#007BFF;stroke-width:20;stroke-linecap:round;stroke-linejoin:round;stroke-miterlimit:13.3333;" d="
						M0,0h93.8"/>
				</g>
				<g id="g3047" transform="translate(365.1953,396.2139)">
					
						<path id="path3049" style="fill:none;stroke:#007BFF;stroke-width:20;stroke-linecap:round;stroke-linejoin:round;stroke-miterlimit:13.3333;" d="
						M0,0h93.8"/>
				</g>
				<g id="g3051" transform="translate(365.1953,362.1357)">
					
						<path id="path3053" style="fill:none;stroke:#007BFF;stroke-width:20;stroke-linecap:round;stroke-linejoin:round;stroke-miterlimit:13.3333;" d="
						M0,0h45.46"/>
				</g>
				<g id="g3055" transform="translate(485.8145,467.5439)">
					
						<path id="path3057" style="fill:none;stroke:#007BFF;stroke-width:20;stroke-linecap:round;stroke-linejoin:round;stroke-miterlimit:13.3333;" d="
						M0,0h-147.44c-10.32,0-18.68-8.37-18.68-18.69v-105.29c0-7.39,4.29-13.76,10.52-16.79c3.13-1.52,5.2-4.59,5.2-8.07v-23.48
						c0-5.33,6.53-7.89,10.15-3.99l26.66,28.65c2.97,3.19,7.13,5,11.49,5H0c10.32,0,18.69,8.37,18.69,18.69v105.29
						C18.69-8.36,10.32,0,0,0z"/>
				</g>
			</g>
		</g>
	</g>
</g>
</svg>
