<?xml version="1.0" encoding="utf-8"?>
<!-- Generator: Adobe Illustrator 26.0.0, SVG Export Plug-In . SVG Version: 6.00 Build 0)  -->
<svg version="1.1" id="Camada_1" xmlns="http://www.w3.org/2000/svg" xmlns:xlink="http://www.w3.org/1999/xlink" x="0px" y="0px"
	 viewBox="0 0 682.7 682.7" style="enable-background:new 0 0 682.7 682.7;" xml:space="preserve">
<g transform="matrix(1.33333 0 0 -1.33333 0 682.667)">
	<g>
		<defs>
			<rect id="SVGID_1_" x="-350.79" y="-350.79" width="1213.69" height="1213.69"/>
		</defs>
		<clipPath id="SVGID_00000010280029624137236210000000787372181874878087_">
			<use xlink:href="#SVGID_1_"  style="overflow:visible;"/>
		</clipPath>
		<g style="clip-path:url(#SVGID_00000010280029624137236210000000787372181874878087_);">
			
				<path style="fill:none;stroke:#007BFF;stroke-width:17;stroke-linecap:round;stroke-linejoin:round;stroke-miterlimit:23.7039;" d="
				M249.23,147.59l-50.1-28.9c-7.1-4.1-15.8-4.1-22.9,0l-101.7,58.8c-7.1,4.1-11.4,11.7-11.4,19.9v117.5c0,8.2,4.4,15.8,11.5,19.9
				l101.7,58.7c7.1,4.1,15.8,4.1,22.9,0l101.7-58.8c7.1-4.1,11.5-11.7,11.5-19.9 M264.33,224.99c0-8.2-4.4-15.8-11.5-19.9l-53.7-31
				c-7.1-4.1-15.8-4.1-22.9,0l-53.7,31c-7.1,4.1-11.4,11.7-11.4,19.9v62c0,8.2,4.4,15.8,11.5,19.8l53.7,31c7.1,4.1,15.8,4.1,22.9,0
				l53.7-31c7.1-4.1,11.4-11.7,11.4-19.9V224.99L264.33,224.99L264.33,224.99z M127.02,399.93h240.9 M7.5,399.93H97 M286.85,112.07
				h81.1 M7.5,112.07h249.3 M312.38,159.54v-93.3 M312.38,445.75v-183.7 M63.03,445.75V66.25 M489.36,324.73l3.3,3.3
				c15.8,15.8,15.8,41.4,0,57.2s-41.4,15.8-57.2,0l-3.3-3.3 M286.07,150.17l-28.4,28.4 M381.82,274.36l-79.7-79.7 M433.42,325.95
				l-27.1-27.1"/>
			
				<path style="fill:none;stroke:#007BFF;stroke-width:17;stroke-linecap:round;stroke-linejoin:round;stroke-miterlimit:23.7039;" d="
				M273.53,223.24c23.2,4.1,32.7-5.4,28.6-28.6c23.2,4.1,32.7-5.4,28.6-28.6 M489.59,324.5l-57.6,57.6c-7.6,7.6-19.8,7.6-27.4,0
				s-7.6-19.8,0-27.4l57.6-57.6c7.6-7.6,19.8-7.6,27.4,0S497.19,316.9,489.59,324.5z"/>
			
				<path style="fill:none;stroke:#007BFF;stroke-width:17;stroke-linecap:round;stroke-linejoin:round;stroke-miterlimit:23.7039;" d="
				M404.83,354.54l-131.3-131.3l-24.4-68.5c-2.9-8.1,5-16,13.1-13.1l68.5,24.4l131.3,131.3L404.83,354.54L404.83,354.54z"/>
		</g>
	</g>
</g>
</svg>
