<?xml version="1.0" encoding="utf-8"?>
<!-- Generator: Adobe Illustrator 26.0.0, SVG Export Plug-In . SVG Version: 6.00 Build 0)  -->
<svg version="1.1" id="Camada_1" xmlns="http://www.w3.org/2000/svg" xmlns:xlink="http://www.w3.org/1999/xlink" x="0px" y="0px"
	 viewBox="0 0 96 96" style="enable-background:new 0 0 96 96;" xml:space="preserve">
<path style="fill:#007BFF;" d="M47.6,55c0-0.7-0.1-1.4-0.4-2c-1.1-2.8-4.3-4.2-7.1-3l-0.5,0.2l-2.8-6.8c-0.3-0.7-0.9-1.3-1.7-1.5
	s-1.6,0-2.3,0.6L23,51.9l-8.1,3.3c-3.6,1.4-6,4.8-6.2,8.7c0,0.6,0.4,1,0.9,1.1c0.6,0,1-0.4,1.1-0.9c0.2-3.1,2.1-5.8,5-6.9l7.4-3
	l1.6,4.1L29,69l-7.4,3c-2.4,1-5.1,0.7-7.3-0.7c-0.5-0.3-1.1-0.2-1.4,0.3s-0.2,1.1,0.3,1.4c1.6,1.1,3.5,1.6,5.4,1.6
	c0.6,0,1.3-0.1,1.9-0.2l6.6,9.3c1,1.4,2.6,2.2,4.2,2.2c0.7,0,1.3-0.1,2-0.4l1.7-0.7c0.7-0.3,1.2-0.9,1.5-1.6
	c0.2-0.7,0.1-1.5-0.4-2.2l-7-10l1.4-0.6l13.8,0.1h0.1c0.8-0.1,1.5-0.5,2-1.2c0.4-0.7,0.5-1.5,0.2-2.3l-2.8-6.8l0.5-0.2
	C46.3,59.2,47.6,57.2,47.6,55L47.6,55z M27.1,71.8l7.3,10.3c0.1,0.2,0.1,0.3,0.1,0.4s-0.1,0.2-0.3,0.3l-1.7,0.7
	c-1.4,0.6-3,0.1-3.8-1.1l-6.2-8.8L27.1,71.8z M44.6,68.3c0,0.1-0.2,0.2-0.4,0.2l-13.3-0.1l-4.5-11.1L24.7,53l9.5-9.2
	c0.2-0.1,0.3-0.1,0.4-0.1c0.1,0,0.3,0.1,0.3,0.3l9.6,23.9C44.7,68.1,44.6,68.3,44.6,68.3z M40.4,51.9l0.5-0.2
	c1.8-0.7,3.8,0.2,4.5,1.9c0.2,0.4,0.2,0.8,0.2,1.3c0,1.4-0.9,2.7-2.2,3.2L43,58.4L40.4,51.9z M11.8,68.7c0.3,0.5,0.2,1.1-0.3,1.4
	c-0.2,0.1-0.4,0.2-0.5,0.2c-0.3,0-0.6-0.2-0.8-0.5c-0.3-0.5-0.6-1-0.8-1.6c0,0,0-0.1-0.1-0.1c-0.2-0.5,0.1-1.1,0.6-1.3
	c0.5-0.2,1.1,0,1.3,0.5v0.1C11.4,67.9,11.6,68.3,11.8,68.7z M51.8,52.1c-0.4,0-0.8-0.2-0.9-0.6c-0.2-0.5,0-1.1,0.6-1.3l4.2-1.7
	c0.5-0.2,1.1,0,1.3,0.6c0.2,0.5,0,1.1-0.6,1.3L52.2,52C52.1,52.1,52,52.1,51.8,52.1z M50.2,42l-2.3,3.8c-0.2,0.3-0.5,0.5-0.8,0.5
	c-0.2,0-0.4,0-0.5-0.2c-0.5-0.3-0.6-0.9-0.3-1.4l2.3-3.8c0.3-0.5,0.9-0.6,1.4-0.3S50.4,41.6,50.2,42z M56.4,60.7L52,59.6
	c-0.5-0.1-0.8-0.7-0.7-1.2s0.7-0.9,1.2-0.7l4.3,1.2c0.5,0.1,0.8,0.7,0.7,1.2s-0.5,0.7-1,0.7L56.4,60.7z M71.2,61
	c-8.3,0-15,6.7-15,15s6.7,15,15,15s15-6.7,15-15S79.4,61,71.2,61z M71.2,89c-7.2,0-13-5.8-13-13s5.8-13,13-13s13,5.8,13,13
	S78.3,89,71.2,89z M75.6,68.5h-8.9c-1.7,0-3,1.3-3,3v8.9c0,1.7,1.3,3,3,3h8.9c1.7,0,3-1.3,3-3v-8.9C78.6,69.9,77.3,68.5,75.6,68.5z
	 M76.6,80.5c0,0.6-0.4,1-1,1h-8.9c-0.6,0-1-0.4-1-1v-8.9c0-0.6,0.4-1,1-1h8.9c0.6,0,1,0.4,1,1V80.5z M71.2,72.8
	c-1.7,0-3.2,1.4-3.2,3.2s1.4,3.2,3.2,3.2s3.2-1.4,3.2-3.2S72.9,72.8,71.2,72.8z M71.2,77.2c-0.6,0-1.2-0.5-1.2-1.2s0.5-1.2,1.2-1.2
	s1.2,0.5,1.2,1.2S71.8,77.2,71.2,77.2z M72.8,52.2c8.3,0,15-6.7,15-15s-6.7-15-15-15s-15,6.7-15,15S64.5,52.2,72.8,52.2z M72.8,24.2
	c7.2,0,13,5.8,13,13s-5.8,13-13,13s-13-5.8-13-13S65.6,24.2,72.8,24.2z M68,35.9c0-0.5,0.4-1,1-1h2.2V33c0-2.2,1.8-4.1,4.1-4.1h1.2
	c0.6,0,1,0.5,1,1s-0.4,1-1,1h-1.2c-1.2,0-2.1,0.9-2.1,2.1v1.8h2.2c0.6,0,1,0.5,1,1s-0.4,1-1,1h-2.2v7.6c0,0.5-0.4,1-1,1s-1-0.5-1-1
	v-7.6H69C68.5,36.9,68,36.4,68,35.9z M35.6,5c-8.3,0-15,6.7-15,15s6.7,15,15,15s15-6.7,15-15S43.8,5,35.6,5z M35.6,33
	c-7.2,0-13-5.8-13-13s5.8-13,13-13s13,5.8,13,13S42.7,33,35.6,33z M40.2,17.3l-5.3-3.1c-1-0.6-2.2-0.6-3.1,0s-1.6,1.6-1.6,2.7v6.2
	c0,1.1,0.6,2.1,1.6,2.7c0.5,0.3,1,0.4,1.6,0.4s1.1-0.1,1.6-0.4l5.3-3.1c1-0.6,1.6-1.6,1.6-2.7S41.2,17.9,40.2,17.3z M39.2,21
	l-5.3,3.1c-0.5,0.3-1,0.1-1.1,0s-0.6-0.4-0.6-1v-6.2c0-0.6,0.4-0.9,0.6-1c0.1-0.1,0.3-0.2,0.6-0.2c0.2,0,0.4,0,0.6,0.2l5.3,3.1
	c0.5,0.3,0.6,0.8,0.6,1S39.7,20.7,39.2,21z"/>
</svg>
