<?xml version="1.0" encoding="utf-8"?>
<!-- Generator: Adobe Illustrator 26.0.0, SVG Export Plug-In . SVG Version: 6.00 Build 0)  -->
<svg version="1.1" id="svg3264" xmlns="http://www.w3.org/2000/svg" xmlns:xlink="http://www.w3.org/1999/xlink" x="0px" y="0px"
	 viewBox="0 0 682.7 682.7" style="enable-background:new 0 0 682.7 682.7;" xml:space="preserve">
<g id="g3270" transform="matrix(1.33333 0 0 -1.33333 0 682.667)">
	<g id="g3272">
		<g>
			<defs>
				<rect id="SVGID_1_" x="-199.08" y="-199.08" width="910.26" height="910.26"/>
			</defs>
			<clipPath id="SVGID_00000057114981982276357130000007824617494294298504_">
				<use xlink:href="#SVGID_1_"  style="overflow:visible;"/>
			</clipPath>
			<g id="g3274" style="clip-path:url(#SVGID_00000057114981982276357130000007824617494294298504_);">
				<g id="g3280" transform="translate(151 45)">
					<path id="path3282" style="fill:none;stroke:#007BFF;stroke-width:18;stroke-miterlimit:17.7777;" d="M0,0
						c0-16.6-13.4-30-30-30S-60-16.6-60,0s13.4,30,30,30S0,16.6,0,0z"/>
				</g>
				<g id="g3284" transform="translate(121 75)">
					<path id="path3286" style="fill:none;stroke:#007BFF;stroke-width:18;stroke-miterlimit:17.7777;" d="M0,0v61
						c0,33.1,26.9,60,60,60h150c33.1,0,60,26.9,60,60v151"/>
				</g>
				<g id="g3288" transform="translate(331 347)">
					<path id="path3290" style="fill:none;stroke:#007BFF;stroke-width:18;stroke-miterlimit:17.7777;" d="M0,0l60,60l60-60"/>
				</g>
				<g id="g3292" transform="translate(421 467)">
					<path id="path3294" style="fill:none;stroke:#007BFF;stroke-width:18;stroke-miterlimit:17.7777;" d="M0,0
						c0-16.6-13.4-30-30-30S-60-16.6-60,0s13.4,30,30,30S0,16.6,0,0z"/>
				</g>
				<g id="g3296" transform="translate(331 136)">
					<path id="path3298" style="fill:none;stroke:#007BFF;stroke-width:18;stroke-miterlimit:17.7777;" d="M0,0l90-90"/>
				</g>
				<g id="g3300" transform="translate(421 136)">
					<path id="path3302" style="fill:none;stroke:#007BFF;stroke-width:18;stroke-miterlimit:17.7777;" d="M0,0l-90-90"/>
				</g>
				<g id="g3304" transform="translate(181 467)">
					<path id="path3306" style="fill:none;stroke:#007BFF;stroke-width:18;stroke-miterlimit:17.7777;" d="M0,0l90-90"/>
				</g>
				<g id="g3308" transform="translate(271 467)">
					<path id="path3310" style="fill:none;stroke:#007BFF;stroke-width:18;stroke-miterlimit:17.7777;" d="M0,0l-90-90"/>
				</g>
				<g id="g3312" transform="translate(61 347)">
					<path id="path3314" style="fill:none;stroke:#007BFF;stroke-width:18;stroke-miterlimit:17.7777;" d="M0,0l90-90"/>
				</g>
				<g id="g3316" transform="translate(151 347)">
					<path id="path3318" style="fill:none;stroke:#007BFF;stroke-width:18;stroke-miterlimit:17.7777;" d="M0,0l-90-90"/>
				</g>
			</g>
		</g>
	</g>
</g>
</svg>
