<?xml version="1.0" encoding="utf-8"?>
<!-- Generator: Adobe Illustrator 26.0.0, SVG Export Plug-In . SVG Version: 6.00 Build 0)  -->
<svg version="1.1" id="Camada_1" xmlns="http://www.w3.org/2000/svg" xmlns:xlink="http://www.w3.org/1999/xlink" x="0px" y="0px"
	 viewBox="0 0 512 512" style="enable-background:new 0 0 512 512;" xml:space="preserve">
<g id="icons">
	
		<path style="fill:none;stroke:#007BFF;stroke-width:15.5152;stroke-linecap:round;stroke-linejoin:round;stroke-miterlimit:77.5758;" d="
		M491.1,366.9c-8.5-5.4-17.1-10.9-24.8-16.3 M496.5,252.9l-38,38c-6.2,6.2-12.4,11.6-19.4,17.1c-101.6,84.6-250.6,85.3-353,1.6
		c-7-6.2-14.7-12.4-21.7-19.4l-38-38l38-38c7-7,14-13.2,21.7-19.4c102.4-83.8,251.3-83,353,1.6c7,5.4,13.2,11.6,19.4,17.1
		L496.5,252.9L496.5,252.9z"/>
	
		<circle style="fill:none;stroke:#007BFF;stroke-width:15.5152;stroke-linecap:round;stroke-linejoin:round;stroke-miterlimit:77.5758;" cx="261.4" cy="252.9" r="86.1"/>
	
		<circle style="fill:none;stroke:#007BFF;stroke-width:15.5152;stroke-linecap:round;stroke-linejoin:round;stroke-miterlimit:77.5758;" cx="261.4" cy="252.9" r="38"/>
	
		<path style="fill:none;stroke:#007BFF;stroke-width:15.5152;stroke-linecap:round;stroke-linejoin:round;stroke-miterlimit:77.5758;" d="
		M137.3,82.2c5.4,8.5,10.1,16.3,14.7,24.8 M26.4,139.6c8.5,5.4,17.1,10.9,25.6,16.3 M261.4,58.2v27.9 M387.9,421.2
		c-5.4-8.5-10.1-16.3-14.7-24.8 M263.8,445.3v-27.9 M287,134.2l97.7-97.7L429,80.7l44.2,44.2l-49.6,50.4l-6.2,5.4 M100.1,321.2
		l-13.2,14l-47.3,46.5l67.5,21.7l20.9,66.7l99.3-99.3 M157.5,353l-50.4,50.4 M429,80.7l-69.8,69.8 M39.6,381.7l-24,112.5l112.5-24"
		/>
	
		<path style="fill:none;stroke:#007BFF;stroke-width:15.5152;stroke-linecap:round;stroke-linejoin:round;stroke-miterlimit:77.5758;" d="
		M473.2,124.9l-88.4-88.4l0.8-0.8c24-24,63.6-24,87.7,0l0.8,0.8c24,24,24,63.6,0,87.7L473.2,124.9L473.2,124.9z"/>
</g>
</svg>
