<svg xmlns="http://www.w3.org/2000/svg" xmlns:xlink="http://www.w3.org/1999/xlink" viewBox="0 0 682.67 682.67" xml:space="preserve"><g transform="matrix(1.33333 0 0 -1.33333 0 682.667)"><defs><path id="a" d="M-85.33-85.33h682.67v682.67H-85.33z"/></defs><clipPath id="b"><use xlink:href="#a" overflow="visible"/></clipPath><g clip-path="url(#b)"><path fill="none" stroke="#007BFF" stroke-width="26.667" stroke-linecap="round" stroke-linejoin="round" stroke-miterlimit="13.333" d="m116.523 61.519-72.29 72.29c-11.75 11.76-11.75 30.81 0 42.57l99.62 99.62M480.5 480.5 502 502M362.57 59.154l49.15-49.15 90.28 90.28-401.73 401.73-90.28-90.28 288.94-288.94M462.88 137.89l-16.55-16.55M426.77 174l-33.1-33.1M390.66 210.11l-16.55-16.55M354.55 246.22l-33.1-33.1M318.44 282.33l-16.55-16.55M282.33 318.44l-33.1-33.1M246.22 354.55 229.67 338M210.11 390.66l-33.1-33.1M174 426.77l-16.55-16.55M137.89 462.88l-33.1-33.1"/><path fill="none" stroke="#007BFF" stroke-width="26.667" stroke-linecap="round" stroke-linejoin="round" stroke-miterlimit="13.333" d="m181.308 240.417-165.7-165.7c-7.47-7.47-7.47-19.59 0-27.06l32.05-32.05c7.47-7.47 19.58-7.47 27.06 0l165.7 165.7M387.279 446.388l-115.7-115.7 59.11-59.11 115.7 115.7 34.11 93.22-93.22-34.11zM330.755 90.97h0M389.223 444.444l55.22-55.22"/></g></g></svg>