<?xml version="1.0" encoding="utf-8"?>
<!-- Generator: Adobe Illustrator 26.0.0, SVG Export Plug-In . SVG Version: 6.00 Build 0)  -->
<svg version="1.1" id="svg3675" xmlns:svg="http://www.w3.org/2000/svg"
	 xmlns="http://www.w3.org/2000/svg" xmlns:xlink="http://www.w3.org/1999/xlink" x="0px" y="0px" viewBox="0 0 682.7 682.7"
	 style="enable-background:new 0 0 682.7 682.7;" xml:space="preserve">
<g id="g3681" transform="matrix(1.3333333,0,0,-1.3333333,0,682.66667)">
	<g id="g3683">
		<g>
			<g>
				<defs>
					<rect id="SVGID_1_" x="-199.08" y="-199.08" width="910.27" height="910.27"/>
				</defs>
				<clipPath id="SVGID_00000164497260129798781890000012038894907201232058_">
					<use xlink:href="#SVGID_1_"  style="overflow:visible;"/>
				</clipPath>
				<g id="g3685" style="clip-path:url(#SVGID_00000164497260129798781890000012038894907201232058_);">
					<g id="g3691" transform="translate(116.5232,61.5188)">
						
							<path id="path3693" style="fill:none;stroke:#007BFF;stroke-width:35.5556;stroke-linecap:round;stroke-linejoin:round;stroke-miterlimit:17.7777;" d="
							M0,0l-72.3,72.3C-84,84-84,103.1-72.3,114.9l99.6,99.6"/>
					</g>
					<g id="g3695" transform="translate(480.5,480.5)">
						
							<path id="path3697" style="fill:none;stroke:#007BFF;stroke-width:35.5556;stroke-linecap:round;stroke-linejoin:round;stroke-miterlimit:17.7777;" d="
							M0,0l21.5,21.5"/>
					</g>
					<g id="g3699" transform="translate(362.5704,59.1544)">
						
							<path id="path3701" style="fill:none;stroke:#007BFF;stroke-width:35.5556;stroke-linecap:round;stroke-linejoin:round;stroke-miterlimit:17.7777;" d="
							M0,0l49.2-49.2l90.3,90.3l-401.7,401.7l-90.3-90.3L-63.6,63.6"/>
					</g>
					<g id="g3703" transform="translate(462.8807,137.8899)">
						
							<path id="path3705" style="fill:none;stroke:#007BFF;stroke-width:35.5556;stroke-linecap:round;stroke-linejoin:round;stroke-miterlimit:17.7777;" d="
							M0,0l-16.6-16.6"/>
					</g>
					<g id="g3707" transform="translate(426.7706,174)">
						
							<path id="path3709" style="fill:none;stroke:#007BFF;stroke-width:35.5556;stroke-linecap:round;stroke-linejoin:round;stroke-miterlimit:17.7777;" d="
							M0,0l-33.1-33.1"/>
					</g>
					<g id="g3711" transform="translate(390.6606,210.1101)">
						
							<path id="path3713" style="fill:none;stroke:#007BFF;stroke-width:35.5556;stroke-linecap:round;stroke-linejoin:round;stroke-miterlimit:17.7777;" d="
							M0,0l-16.6-16.6"/>
					</g>
					<g id="g3715" transform="translate(354.5504,246.2202)">
						
							<path id="path3717" style="fill:none;stroke:#007BFF;stroke-width:35.5556;stroke-linecap:round;stroke-linejoin:round;stroke-miterlimit:17.7777;" d="
							M0,0l-33.1-33.1"/>
					</g>
					<g id="g3719" transform="translate(318.4404,282.3303)">
						
							<path id="path3721" style="fill:none;stroke:#007BFF;stroke-width:35.5556;stroke-linecap:round;stroke-linejoin:round;stroke-miterlimit:17.7777;" d="
							M0,0l-16.6-16.6"/>
					</g>
					<g id="g3723" transform="translate(282.3303,318.4404)">
						
							<path id="path3725" style="fill:none;stroke:#007BFF;stroke-width:35.5556;stroke-linecap:round;stroke-linejoin:round;stroke-miterlimit:17.7777;" d="
							M0,0l-33.1-33.1"/>
					</g>
					<g id="g3727" transform="translate(246.2202,354.5504)">
						
							<path id="path3729" style="fill:none;stroke:#007BFF;stroke-width:35.5556;stroke-linecap:round;stroke-linejoin:round;stroke-miterlimit:17.7777;" d="
							M0,0l-16.6-16.6"/>
					</g>
					<g id="g3731" transform="translate(210.1101,390.6606)">
						
							<path id="path3733" style="fill:none;stroke:#007BFF;stroke-width:35.5556;stroke-linecap:round;stroke-linejoin:round;stroke-miterlimit:17.7777;" d="
							M0,0l-33.1-33.1"/>
					</g>
					<g id="g3735" transform="translate(174,426.7706)">
						
							<path id="path3737" style="fill:none;stroke:#007BFF;stroke-width:35.5556;stroke-linecap:round;stroke-linejoin:round;stroke-miterlimit:17.7777;" d="
							M0,0l-16.6-16.6"/>
					</g>
					<g id="g3739" transform="translate(137.8899,462.8807)">
						
							<path id="path3741" style="fill:none;stroke:#007BFF;stroke-width:35.5556;stroke-linecap:round;stroke-linejoin:round;stroke-miterlimit:17.7777;" d="
							M0,0l-33.1-33.1"/>
					</g>
					<g id="g3743" transform="translate(181.3078,240.417)">
						
							<path id="path3745" style="fill:none;stroke:#007BFF;stroke-width:35.5556;stroke-linecap:round;stroke-linejoin:round;stroke-miterlimit:17.7777;" d="
							M0,0l-165.7-165.7c-7.5-7.5-7.5-19.6,0-27.1l32.1-32.1c7.5-7.5,19.6-7.5,27.1,0L59.1-59.1"/>
					</g>
					<g id="g3747" transform="translate(387.2788,446.3877)">
						
							<path id="path3749" style="fill:none;stroke:#007BFF;stroke-width:35.5556;stroke-linecap:round;stroke-linejoin:round;stroke-miterlimit:17.7777;" d="
							M0,0l-115.7-115.7l59.1-59.1L59.1-59.1l34.1,93.2L0,0z"/>
					</g>
					<g id="g3751" transform="translate(330.7546,90.9702)">
						
							<path id="path3753" style="fill:none;stroke:#007BFF;stroke-width:35.5556;stroke-linecap:round;stroke-linejoin:round;stroke-miterlimit:17.7777;" d="
							M0,0L0,0"/>
					</g>
					<g id="g3755" transform="translate(389.2227,444.4439)">
						
							<path id="path3757" style="fill:none;stroke:#007BFF;stroke-width:35.5556;stroke-linecap:round;stroke-linejoin:round;stroke-miterlimit:17.7777;" d="
							M0,0l55.2-55.2"/>
					</g>
				</g>
			</g>
		</g>
	</g>
</g>
</svg>
