<svg xmlns="http://www.w3.org/2000/svg" viewBox="0 0 512 512" style="enable-background:new 0 0 512 512" xml:space="preserve"><path style="fill:#007bff" d="M352 256c.07-53.02-42.86-96.05-95.88-96.12s-96.05 42.86-96.12 95.88c-.05 36.41 20.51 69.71 53.08 85.99L202.58 368H200c-17.67 0-32 14.33-32 32v8c0 4.42 3.58 8 8 8h160c4.42 0 8-3.58 8-8v-8c0-17.67-14.33-32-32-32h-2.58l-10.5-26.25c32.49-16.24 53.03-49.43 53.08-85.75zm-176 0c0-44.18 35.82-80 80-80s80 35.82 80 80-35.82 80-80 80c-44.16-.05-79.95-35.84-80-80zm152 144H184c0-8.84 7.16-16 16-16h112c8.84 0 16 7.16 16 16zm-35.82-32h-72.37l8.09-20.22a95.74 95.74 0 0 0 56.19 0l8.09 20.22z"/><path style="fill:#007bff" d="M296 280c0-22.09-17.91-40-40-40s-40 17.91-40 40 17.91 40 40 40c22.08-.03 39.97-17.92 40-40zm-64 0c0-13.25 10.75-24 24-24s24 10.75 24 24-10.75 24-24 24-24-10.75-24-24zM280 208h16v16h-16zM8 376c0 50.62 93.87 90.46 221.24 95.45l-18.9 18.9 11.31 11.31 32-32c3.12-3.12 3.12-8.19 0-11.31l-32-32-11.31 11.31 17.7 17.7C126.04 450.61 24 419.38 24 376c0-26.9 44.62-53.75 113.66-68.4l-3.33-15.66C55.2 308.73 8 340.15 8 376zM377.66 291.94l-3.33 15.66C443.38 322.25 488 349.1 488 376c0 35.87-82.66 76.58-216.19 79.81l.38 16C404.34 468.62 504 427.43 504 376c0-35.85-47.2-67.27-126.34-84.06zM160 112v4c-.03 15.46 12.48 28.03 27.94 28.06 15.46.03 28.03-12.48 28.06-27.94.02-7.57-3.04-14.83-8.46-20.12 11.08-10.79 11.31-28.52.52-39.59-10.79-11.08-28.52-11.31-39.59-.52a27.953 27.953 0 0 0-8.46 20.12v4h16v-4c0-6.63 5.37-12 12-12s12 5.37 12 12-5.37 12-12 12h-4v16h4c6.63 0 12 5.37 12 12s-5.37 12-12 12-12-5.37-12-12v-4H160zM280 80v-4c0-15.46-12.54-28-28-28s-28 12.54-28 28v40c0 15.46 12.54 28 28 28s28-12.54 28-28-12.54-28-28-28h-12V76c0-6.63 5.37-12 12-12s12 5.37 12 12v4h16zm-28 24c6.63 0 12 5.37 12 12s-5.37 12-12 12-12-5.37-12-12v-12h12zM344 116V76c0-15.46-12.54-28-28-28s-28 12.54-28 28v40c0 15.46 12.54 28 28 28s28-12.54 28-28zm-40 0V76c0-6.63 5.37-12 12-12s12 5.37 12 12v40c0 6.63-5.37 12-12 12s-12-5.37-12-12zM376 8c-13.25 0-24 10.75-24 24s10.75 24 24 24 24-10.75 24-24-10.75-24-24-24zm0 32c-4.42 0-8-3.58-8-8s3.58-8 8-8 8 3.58 8 8-3.58 8-8 8z"/></svg>