<?xml version="1.0" encoding="utf-8"?>
<!-- Generator: Adobe Illustrator 26.0.0, SVG Export Plug-In . SVG Version: 6.00 Build 0)  -->
<svg version="1.1" id="Website" xmlns="http://www.w3.org/2000/svg" xmlns:xlink="http://www.w3.org/1999/xlink" x="0px" y="0px"
	 viewBox="0 0 512 512" style="enable-background:new 0 0 512 512;" xml:space="preserve">
<g>
	<path style="fill:#007BFF;" d="M493.33,426.84c-3.47-6.3-9.06-9.91-15.34-9.91H462V182.09c0-19.21-15.7-34.84-35-34.84h-29.45
		c-2.09-28.52-12.85-56.02-30.81-78.36c-26.57-33.05-65.92-52.29-108.26-53.03c-1.6-0.4-3.27-0.4-4.87,0
		c-42.36,0.7-81.75,19.94-108.36,53.03c-17.97,22.34-28.72,49.83-30.81,78.36H85c-19.3,0-35,15.63-35,34.84v234.84H34.01
		c-6.28,0-11.87,3.61-15.34,9.91c-4.42,8.01-5.59,21.33,0.69,31.29c0.35,0.55,0.75,1.06,1.19,1.54
		C55.8,496.9,57.6,496.9,62.41,496.9h387.18c4.81,0,6.61,0,41.85-37.23c0.45-0.47,0.85-0.99,1.19-1.54
		C498.93,448.17,497.75,434.85,493.33,426.84L493.33,426.84z M65.67,476.9c-5.15-4.62-18.42-18.15-29.76-30.11
		c-1.46-3.05-0.97-7.7,0.02-9.87h160.15v4.14c0,14.19,11.55,25.74,25.74,25.74h68.38c14.19,0,25.74-11.55,25.74-25.74v-4.14h160.14
		c0.99,2.17,1.48,6.81,0.02,9.87c-11.34,11.96-24.61,25.48-29.76,30.11L65.67,476.9L65.67,476.9z M70,182.09
		c0-8.18,6.73-14.84,15-14.84h29.4c2,28.72,12.77,56.43,30.85,78.91c26.71,33.21,66.44,52.55,108.9,53.05c0.07,0,0.15,0,0.22,0h0.01
		h0.01c0.45,0.01,0.9,0.01,1.36,0.01h0.2c0.02,0,0.04,0,0.06,0c0.03,0,0.05,0,0.08,0c43.24-0.02,83.57-19.36,110.66-53.06
		c18.08-22.48,28.86-50.19,30.86-78.91H427c8.27,0,15,6.66,15,14.84v234.84H70V182.09z M356.65,226.23
		c-12.15-7.83-25.11-14.19-38.72-18.98c3.67-12.94,5.9-26.24,6.68-39.72h52.93C375.83,188.73,368.71,208.72,356.65,226.23
		L356.65,226.23z M134.47,167.53h52c0.72,13.62,2.93,27.04,6.58,40.09c-13.23,4.75-25.85,10.98-37.69,18.62
		C143.29,208.72,136.17,188.73,134.47,167.53L134.47,167.53z M246,196.96c-11.43,0.61-22.73,2.25-33.79,4.91
		c-3.11-11.19-5.02-22.68-5.72-34.35H246V196.96z M246,217.01v48.12c-11.35-13.24-20.56-28.18-27.23-44.24
		C227.7,218.85,236.8,217.56,246,217.01L246,217.01z M266,217.01c8.81,0.52,17.53,1.73,26.09,3.62
		c-6.47,15.4-15.3,29.75-26.09,42.56V217.01z M298.73,201.62c-10.72-2.52-21.67-4.08-32.73-4.66v-29.43h38.58
		C303.83,179.1,301.87,190.51,298.73,201.62L298.73,201.62z M199.49,226.54c7.24,18.01,17.31,34.81,29.76,49.73
		c-23.23-5.19-44.48-17.08-61.17-34.44C177.99,235.63,188.51,230.52,199.49,226.54z M311.42,226.16
		c11.38,4.02,22.26,9.26,32.51,15.68c-17.18,17.88-39.15,29.94-63.17,34.87C293.61,261.59,303.99,244.51,311.42,226.16z M266,147.52
		v-29.43c11.21-0.6,22.32-2.19,33.19-4.77c3.02,11.14,4.86,22.59,5.49,34.2H266z M266,98.04V50.07
		c11.18,13.26,20.22,28.18,26.75,44.2C283.97,96.24,275.03,97.5,266,98.04z M246,98.04c-9.2-0.55-18.3-1.84-27.23-3.88
		c6.68-16.06,15.88-31.01,27.23-44.25V98.04z M212.21,113.18c11.06,2.66,22.37,4.31,33.79,4.91v29.43h-39.51
		C207.18,135.85,209.1,124.36,212.21,113.18L212.21,113.18z M324.7,147.52c-0.66-13.55-2.77-26.9-6.33-39.88
		c13.44-4.78,26.25-11.08,38.27-18.82c12.07,17.5,19.19,37.5,20.89,58.7H324.7z M312.04,88.67c-7.13-18.07-17.1-34.94-29.48-49.94
		c23.32,5.16,44.62,17.06,61.37,34.49C333.86,79.51,323.19,84.68,312.04,88.67z M229.26,38.76c-12.46,14.93-22.53,31.73-29.77,49.74
		c-10.99-3.97-21.5-9.09-31.42-15.29C184.78,55.83,206.02,43.94,229.26,38.76L229.26,38.76z M155.35,88.82
		c11.84,7.63,24.46,13.86,37.69,18.61c-3.65,13.04-5.86,26.46-6.58,40.09h-52C136.17,126.32,143.29,106.33,155.35,88.82z
		 M295.93,437.04v4.03c0,3.16-2.57,5.74-5.74,5.74h-68.38c-3.16,0-5.74-2.57-5.74-5.74v-4.03H295.93z"/>
	<path style="fill:#007BFF;" d="M198.34,331.91c-4.86-2.62-10.93-0.8-13.55,4.06l-9.92,18.4l-9.92-18.4
		c-3.46-6.89-14.15-6.89-17.6,0l-9.92,18.4l-9.92-18.4c-2.62-4.86-8.69-6.68-13.55-4.06s-6.68,8.69-4.06,13.55l18.72,34.72
		c1.74,3.24,5.12,5.25,8.8,5.25s7.06-2.02,8.8-5.25l9.92-18.4l9.92,18.4c1.74,3.24,5.12,5.25,8.8,5.25s7.06-2.02,8.8-5.25
		l18.72-34.72C205.02,340.59,203.2,334.53,198.34,331.91z"/>
	<path style="fill:#007BFF;" d="M298.19,331.91c-4.86-2.62-10.93-0.8-13.55,4.06l-9.92,18.4l-9.86-18.29c0-0.01-0.01-0.01-0.01-0.02
		l-0.05-0.09c-0.04-0.08-0.09-0.14-0.13-0.22c-0.12-0.2-0.23-0.4-0.36-0.6c-0.07-0.11-0.15-0.2-0.22-0.3
		c-3.69-5.43-12.46-5.44-16.16-0.01c-0.08,0.11-0.16,0.21-0.23,0.32c-0.12,0.18-0.23,0.38-0.34,0.57c-0.05,0.08-0.1,0.16-0.15,0.25
		l-9.92,18.4l-9.92-18.4c-2.62-4.86-8.69-6.68-13.55-4.06s-6.68,8.69-4.06,13.55l18.72,34.72c1.74,3.24,5.12,5.25,8.8,5.25
		s7.06-2.02,8.8-5.25l9.92-18.4l9.92,18.4c1.74,3.24,5.12,5.25,8.8,5.25s7.06-2.02,8.8-5.25l18.72-34.72
		C304.87,340.59,303.05,334.53,298.19,331.91L298.19,331.91z"/>
	<path style="fill:#007BFF;" d="M398.04,331.91c-4.86-2.62-10.93-0.8-13.55,4.06l-9.92,18.4l-9.86-18.29c0-0.01-0.01-0.01-0.01-0.02
		l-0.05-0.09c-0.04-0.07-0.09-0.14-0.13-0.21c-0.12-0.2-0.23-0.41-0.37-0.61c-3.68-5.83-12.94-5.83-16.61,0
		c-0.13,0.2-0.25,0.4-0.36,0.6c-0.04,0.07-0.09,0.14-0.13,0.21l-0.05,0.09c0,0.01-0.01,0.01-0.01,0.02l-9.86,18.29l-9.92-18.4
		c-2.62-4.86-8.69-6.68-13.55-4.06s-6.68,8.69-4.06,13.55l18.72,34.72c1.74,3.24,5.12,5.25,8.8,5.25s7.06-2.02,8.8-5.25l9.92-18.4
		l9.92,18.4c1.74,3.24,5.12,5.25,8.8,5.25s7.06-2.02,8.8-5.25l18.72-34.72C404.72,340.59,402.9,334.53,398.04,331.91L398.04,331.91z
		"/>
</g>
</svg>
