<?xml version="1.0" encoding="utf-8"?>
<!-- Generator: Adobe Illustrator 26.0.0, SVG Export Plug-In . SVG Version: 6.00 Build 0)  -->
<svg version="1.1" id="Camada_1" xmlns="http://www.w3.org/2000/svg" xmlns:xlink="http://www.w3.org/1999/xlink" x="0px" y="0px"
	 viewBox="0 0 512 511" style="enable-background:new 0 0 512 511;" xml:space="preserve">
<path style="fill:#007BFF;" d="M173.33,130.5c0,20.68,16.82,37.5,37.5,37.5s37.5-16.82,37.5-37.5S231.51,93,210.83,93
	S173.33,109.82,173.33,130.5z M210.83,113c9.65,0,17.5,7.85,17.5,17.5s-7.85,17.5-17.5,17.5s-17.5-7.85-17.5-17.5
	S201.18,113,210.83,113z"/>
<path style="fill:#007BFF;" d="M330.83,230.5c16.54,0,30-13.46,30-30s-13.46-30-30-30s-30,13.46-30,30S314.29,230.5,330.83,230.5z
	 M330.83,190.5c5.52,0,10,4.48,10,10s-4.48,10-10,10c-5.51,0-10-4.48-10-10S325.32,190.5,330.83,190.5z"/>
<path style="fill:#007BFF;" d="M265.06,366.36c-0.25-0.6-0.56-1.18-0.92-1.73c-0.36-0.54-0.78-1.06-1.24-1.52s-0.97-0.88-1.52-1.24
	c-0.54-0.36-1.12-0.67-1.72-0.92c-0.61-0.25-1.24-0.44-1.88-0.57c-1.29-0.26-2.61-0.26-3.9,0c-0.64,0.13-1.27,0.32-1.87,0.57
	c-0.61,0.25-1.19,0.56-1.73,0.92c-0.55,0.36-1.06,0.78-1.52,1.24s-0.88,0.98-1.24,1.52c-0.37,0.55-0.67,1.13-0.92,1.73
	s-0.45,1.23-0.57,1.87c-0.13,0.65-0.2,1.3-0.2,1.95c0,0.66,0.07,1.31,0.2,1.96c0.12,0.64,0.32,1.27,0.57,1.87s0.55,1.18,0.92,1.73
	c0.36,0.54,0.78,1.05,1.24,1.51c0.46,0.47,0.97,0.88,1.52,1.25c0.54,0.36,1.12,0.67,1.73,0.92c0.6,0.25,1.23,0.44,1.87,0.57
	s1.3,0.2,1.95,0.2c0.65,0,1.31-0.07,1.95-0.2c0.64-0.13,1.27-0.32,1.88-0.57c0.6-0.25,1.18-0.56,1.72-0.92
	c0.55-0.37,1.06-0.78,1.52-1.25c0.46-0.46,0.88-0.97,1.24-1.51c0.36-0.55,0.67-1.13,0.92-1.73s0.45-1.23,0.58-1.87
	c0.13-0.65,0.19-1.3,0.19-1.96c0-0.65-0.06-1.3-0.19-1.95C265.51,367.59,265.31,366.96,265.06,366.36z"/>
<path style="fill:#007BFF;" d="M118.02,304.49c0.25,0.6,0.55,1.18,0.91,1.73c0.37,0.54,0.79,1.06,1.25,1.52s0.97,0.88,1.52,1.24
	c0.54,0.36,1.12,0.67,1.72,0.92c0.61,0.25,1.24,0.44,1.88,0.57s1.3,0.2,1.95,0.2s1.31-0.07,1.95-0.2s1.27-0.32,1.87-0.57
	c0.61-0.25,1.19-0.56,1.73-0.92c0.55-0.36,1.06-0.78,1.52-1.24s0.88-0.98,1.24-1.52c0.36-0.55,0.67-1.13,0.92-1.73
	s0.45-1.23,0.58-1.87c0.12-0.64,0.19-1.3,0.19-1.95c0-0.66-0.07-1.31-0.19-1.96c-0.13-0.64-0.33-1.26-0.58-1.87
	c-0.25-0.6-0.56-1.18-0.92-1.72c-0.36-0.55-0.78-1.06-1.24-1.52c-0.46-0.47-0.97-0.88-1.52-1.25c-0.54-0.36-1.12-0.67-1.73-0.92
	c-0.6-0.25-1.23-0.44-1.87-0.57c-1.29-0.26-2.62-0.26-3.9,0c-0.64,0.13-1.27,0.32-1.88,0.57c-0.6,0.25-1.18,0.56-1.72,0.92
	c-0.55,0.37-1.06,0.78-1.52,1.25c-0.46,0.46-0.88,0.97-1.25,1.52c-0.36,0.54-0.66,1.12-0.91,1.72c-0.25,0.61-0.45,1.23-0.58,1.87
	c-0.13,0.65-0.19,1.3-0.19,1.96c0,0.65,0.06,1.31,0.19,1.95S117.77,303.89,118.02,304.49z"/>
<path style="fill:#007BFF;" d="M469.91,10.5H42.08C18.88,10.5,0,29.38,0,52.58v315.84c0,23.2,18.88,42.08,42.08,42.08h125.07
	l-9.57,71h-21.76c-5.52,0-10,4.48-10,10s4.48,10,10,10h240c5.52,0,10-4.48,10-10s-4.48-10-10-10h-21.75l-9.57-71h125.4
	c23.21,0,42.09-18.88,42.09-42.08V52.58C512,29.38,493.12,10.5,469.91,10.5z M218.34,33.61c2.01,2,3.11,4.67,3.11,7.51v9.48
	c0,4.56,3.09,8.54,7.51,9.68c6.61,1.7,12.89,4.3,18.66,7.74c3.93,2.34,8.95,1.71,12.19-1.53l6.7-6.71c4.14-4.14,10.89-4.14,15.04,0
	c1.14,1.14,1.99,2.49,2.52,4c1.36,3.89,0.39,8.12-2.51,11.02l-6.72,6.71c-3.24,3.23-3.87,8.25-1.53,12.19
	c3.44,5.78,6.04,12.06,7.74,18.66c1.14,4.42,5.12,7.5,9.68,7.5h9.48c3.36,0,6.44,1.59,8.41,4.13c-1.76,3.39-2.72,7.18-2.79,11.09
	c-1.2,0.46-2.39,0.96-3.57,1.48c-4.69-4.54-10.85-7.04-17.39-7.04c-6.68,0-12.96,2.6-17.68,7.32c-9.65,9.66-9.75,25.3-0.28,35.08
	c-0.53,1.17-1.02,2.36-1.48,3.57c-6.54,0.1-12.66,2.7-17.25,7.31c-3.75,3.73-6.16,8.44-7.01,13.55c-3.9,1.8-7.99,3.26-12.21,4.35
	c-4.42,1.14-7.5,5.12-7.5,9.68v9.48c0,5.86-4.77,10.62-10.62,10.62c-2.84,0-5.5-1.11-7.51-3.11s-3.11-4.67-3.11-7.51v-9.48
	c0-4.56-3.09-8.54-7.51-9.68c-6.61-1.7-12.89-4.3-18.66-7.74c-1.59-0.94-3.35-1.4-5.11-1.4c-2.59,0-5.15,1-7.08,2.93l-6.7,6.71
	c-4.13,4.12-10.85,4.14-15,0.04c-0.01-0.01-0.02-0.02-0.04-0.04c-4.14-4.15-4.14-10.89-0.01-15.03l6.72-6.71
	c3.23-3.23,3.87-8.25,1.53-12.19c-3.43-5.78-6.04-12.06-7.74-18.66c-1.14-4.42-5.12-7.5-9.68-7.5h-9.48
	c-5.86,0-10.62-4.77-10.62-10.62c0-2.84,1.11-5.5,3.11-7.51c2.01-2.01,4.67-3.11,7.51-3.11h9.48c4.56,0,8.55-3.09,9.68-7.5
	c1.7-6.61,4.31-12.89,7.74-18.66c2.34-3.93,1.71-8.95-1.53-12.19l-6.71-6.7c-2.91-2.91-3.88-7.14-2.52-11.03
	c0.53-1.51,1.38-2.86,2.52-4.01c4.14-4.14,10.89-4.14,15.03-0.01l6.71,6.72c3.23,3.24,8.25,3.87,12.18,1.53
	c5.78-3.44,12.06-6.04,18.66-7.74c4.42-1.14,7.51-5.12,7.51-9.68v-9.48c0-5.86,4.77-10.62,10.62-10.62
	C213.66,30.5,216.33,31.61,218.34,33.61z M318.33,152.07c4.42-1.14,7.5-5.12,7.5-9.68v-6.89c0-1.31,0.5-2.54,1.41-3.47
	c0.01,0,0.01-0.01,0.02-0.02c0,0,0,0,0.01-0.01c0.55-0.56,1.74-1.51,3.57-1.51c1.33,0,2.58,0.52,3.54,1.48
	c0.94,0.94,1.46,2.19,1.46,3.52v6.89c0,4.56,3.09,8.54,7.5,9.68c4.55,1.17,8.88,2.97,12.87,5.34c3.93,2.33,8.94,1.7,12.18-1.53
	l4.88-4.88c1.95-1.95,5.13-1.95,7.08,0c1.27,1.27,1.46,2.77,1.46,3.54c0,0.78-0.19,2.27-1.46,3.54l-4.88,4.88
	c-3.23,3.23-3.86,8.25-1.53,12.18c2.37,3.99,4.16,8.32,5.34,12.87c1.14,4.41,5.12,7.5,9.68,7.5h6.89c2.76,0,5,2.24,5,5
	c0,1.33-0.52,2.58-1.48,3.54c-0.54,0.54-1.72,1.46-3.52,1.46h-6.89c-4.56,0-8.54,3.09-9.68,7.5c-1.18,4.55-2.97,8.88-5.34,12.87
	c-2.33,3.93-1.7,8.94,1.53,12.18l4.88,4.88c1.95,1.95,1.95,5.12,0,7.08c-1.27,1.27-2.76,1.46-3.54,1.46s-2.27-0.19-3.54-1.46
	l-4.88-4.88c-3.23-3.23-8.25-3.86-12.18-1.53c-3.99,2.37-8.32,4.16-12.87,5.34c-4.41,1.14-7.5,5.12-7.5,9.68v6.89c0,2.76-2.24,5-5,5
	c-1.79,0-2.97-0.91-3.54-1.48c-0.94-0.94-1.46-2.18-1.46-3.52v-6.89c0-4.56-3.09-8.54-7.5-9.68c-4.55-1.18-8.88-2.97-12.87-5.34
	c-3.93-2.33-8.94-1.7-12.17,1.53l-4.88,4.88c-1.95,1.95-5.13,1.95-7.08,0c-1.27-1.27-1.46-2.76-1.46-3.54s0.19-2.27,1.46-3.54
	l4.88-4.88c3.23-3.23,3.86-8.24,1.53-12.18c-2.37-3.99-4.16-8.32-5.34-12.87c-1.14-4.41-5.12-7.5-9.68-7.5h-6.89
	c-2.48,0-4.61-1.84-4.95-4.29c0-0.01,0-0.02,0-0.03c0-0.02,0-0.04-0.01-0.06c-0.03-0.2-0.04-0.39-0.04-0.62
	c0-1.33,0.52-2.58,1.48-3.54c0.94-0.94,2.18-1.46,3.52-1.46h6.89c4.56,0,8.54-3.09,9.68-7.5c1.17-4.55,2.97-8.88,5.34-12.87
	c2.33-3.93,1.7-8.95-1.53-12.18l-4.88-4.88c-1.95-1.95-1.95-5.12,0-7.07c1.27-1.27,2.77-1.46,3.54-1.46c0.78,0,2.27,0.19,3.54,1.46
	l4.88,4.88c3.23,3.23,8.24,3.86,12.17,1.53C309.45,155.04,313.78,153.25,318.33,152.07z M42.08,30.5h140.03
	c-1.23,3.31-1.9,6.89-1.9,10.62v2.07c-3.23,1.13-6.39,2.44-9.45,3.92l-1.47-1.47c-11.93-11.93-31.36-11.93-43.32,0.01
	c-1.5,1.5-2.8,3.12-3.95,4.85H62.34c-11.63,0-21.09,9.46-21.09,21.08v217.84c0,11.62,9.46,21.08,21.09,21.08h24.58
	c5.52,0,10-4.48,10-10s-4.48-10-10-10H62.34c-0.6,0-1.09-0.48-1.09-1.08V71.58c0-0.59,0.49-1.08,1.09-1.08h54.88
	c0.73,6.86,3.74,13.44,8.76,18.46l1.47,1.46c-1.48,3.07-2.79,6.22-3.92,9.45h-2.07c-8.18,0-15.87,3.19-21.65,8.97
	c-5.79,5.79-8.97,13.48-8.97,21.65c0,16.88,13.73,30.62,30.62,30.62h2.07c1.13,3.23,2.44,6.38,3.92,9.45l-1.48,1.47
	c-11.91,11.92-11.93,31.3-0.05,43.25c0.02,0.02,0.05,0.05,0.07,0.07c11.94,11.92,31.36,11.93,43.31-0.01l1.46-1.46
	c3.07,1.48,6.22,2.79,9.45,3.92v2.07c0,8.18,3.18,15.87,8.97,21.65c5.79,5.79,13.47,8.97,21.65,8.97
	c16.89,0,30.62-13.73,30.62-30.62v-2.07c1.61-0.57,3.2-1.19,4.78-1.84c4.54,5.73,11.51,9.41,19.2,9.53c0.46,1.2,0.95,2.39,1.48,3.57
	c-4.54,4.69-7.04,10.85-7.04,17.4c0,6.68,2.6,12.96,7.32,17.68c9.65,9.66,25.3,9.75,35.07,0.28c1.18,0.52,2.36,1.02,3.57,1.48
	c0.11,6.54,2.7,12.66,7.31,17.26c4.72,4.73,11,7.34,17.68,7.34c13.65,0,24.79-11,25-24.6c1.2-0.46,2.39-0.96,3.57-1.48
	c4.69,4.54,10.85,7.04,17.39,7.04c6.68,0,12.96-2.6,17.68-7.32c9.65-9.66,9.75-25.3,0.28-35.08c0.52-1.17,1.02-2.36,1.48-3.57
	c6.54-0.1,12.66-2.7,17.26-7.31c4.73-4.72,7.34-11,7.34-17.69c0-13.65-11-24.78-24.6-25c-0.46-1.2-0.95-2.39-1.48-3.57
	c4.54-4.69,7.04-10.85,7.04-17.4c0-6.68-2.6-12.96-7.32-17.68c-9.66-9.66-25.31-9.75-35.08-0.28c-1.18-0.52-2.36-1.02-3.57-1.48
	c-0.1-6.54-2.7-12.66-7.31-17.26c-4.72-4.73-11-7.34-17.68-7.34c-2.3,0-4.54,0.31-6.7,0.91c-5.68-7.1-14.41-11.52-23.93-11.52h-2.07
	c-1.13-3.23-2.44-6.39-3.92-9.45l1.48-1.47c5.01-5.02,8.02-11.6,8.75-18.46H449.3c0.6,0,1.09,0.48,1.09,1.08v217.84
	c0,0.59-0.49,1.08-1.09,1.08H166.9c-5.52,0-10,4.48-10,10s4.48,10,10,10h282.4c11.63,0,21.09-9.46,21.09-21.08V71.58
	c0-11.62-9.46-21.08-21.09-21.08H299.64c-1.14-1.73-2.46-3.36-3.96-4.87c-11.94-11.92-31.36-11.92-43.31,0.01l-1.46,1.46
	c-3.07-1.48-6.22-2.79-9.45-3.92v-2.07c0-3.68-0.65-7.27-1.89-10.62h230.35c12.18,0,22.09,9.91,22.09,22.08V330.5H20V52.58
	C20,40.41,29.91,30.5,42.08,30.5z M333.89,481.5H177.77l9.57-71h136.99L333.89,481.5z M469.91,390.5H42.08
	c-12.17,0-22.08-9.91-22.08-22.08V350.5h472v17.92C492,380.59,482.09,390.5,469.91,390.5z"/>
</svg>
