<?xml version="1.0" encoding="utf-8"?>
<!-- Generator: Adobe Illustrator 26.0.0, SVG Export Plug-In . SVG Version: 6.00 Build 0)  -->
<svg version="1.1" id="Line" xmlns="http://www.w3.org/2000/svg" xmlns:xlink="http://www.w3.org/1999/xlink" x="0px" y="0px"
	 viewBox="0 0 512 512" style="enable-background:new 0 0 512 512;" xml:space="preserve">
<g>
	<path style="fill:#007BFF;" d="M438.54,60.69H73.22c-27.17,0-49.27,22.21-49.27,49.5v291.62c0,27.3,22.1,49.5,49.27,49.5h365.33
		c27.3,0,49.5-22.21,49.5-49.5V110.18C488.05,82.9,465.84,60.69,438.54,60.69z M73.22,76.69h365.33c18.47,0,33.5,15.02,33.5,33.5
		v38.94H39.95v-38.94C39.95,91.71,54.87,76.69,73.22,76.69z M438.54,435.31H73.22c-18.34,0-33.27-15.02-33.27-33.5V165.13h432.1
		v236.68C472.05,420.29,457.02,435.31,438.54,435.31z"/>
	<path style="fill:#007BFF;" d="M85.02,138.14h191.84c13.91,0,25.23-11.32,25.23-25.23s-11.32-25.23-25.23-25.23H85.02
		c-13.91,0-25.23,11.32-25.23,25.23S71.1,138.14,85.02,138.14z M85.02,103.67h191.84c5.1,0,9.23,4.14,9.23,9.23
		s-4.14,9.23-9.23,9.23H85.02c-5.1,0-9.23-4.14-9.23-9.23S79.92,103.67,85.02,103.67z"/>
	<path style="fill:#007BFF;" d="M348.08,138.14h78.69c13.91,0,25.23-11.32,25.23-25.23s-11.32-25.23-25.23-25.23h-78.69
		c-13.91,0-25.23,11.32-25.23,25.23S334.17,138.14,348.08,138.14L348.08,138.14z M348.08,103.67h78.69c5.1,0,9.23,4.14,9.23,9.23
		s-4.14,9.23-9.23,9.23h-78.69c-5.1,0-9.23-4.14-9.23-9.23S342.98,103.67,348.08,103.67L348.08,103.67z"/>
	<path style="fill:#007BFF;" d="M334.01,248.37c-1.31-9.94-8.13-17.64-17.17-20.46v-9.78c0-22.79-18.54-41.34-41.34-41.34
		c-6.26,0-12.14,1.53-17.46,4.06c-5.32-2.53-11.19-4.06-17.46-4.06c-22.79,0-41.34,18.54-41.34,41.34v8.85
		c-11.15,1.42-19.97,9.93-21.48,21.41l-12.92,98.83c-1,7.34,1.08,14.17,6.01,19.75c4.83,5.48,11.3,8.38,18.7,8.38h132.66
		c7.74,0,14.26-2.97,18.71-8.38c4.93-5.61,7-12.44,6-19.7L334.01,248.37z M258.04,199.98c4.7,4.61,7.65,11.02,7.65,18.14v8.55h-15.3
		v-8.55C250.39,211.01,253.34,204.59,258.04,199.98z M300.84,218.13v8.55h-19.16v-8.55c0-9.47-3.31-18.1-8.66-25.08
		c0.83-0.09,1.63-0.26,2.48-0.26C289.48,192.79,300.84,204.16,300.84,218.13z M240.58,192.79c0.85,0,1.65,0.17,2.47,0.26
		c-5.34,6.98-8.66,15.61-8.66,25.08v8.55h-19.15v-8.55C215.25,204.16,226.62,192.79,240.58,192.79L240.58,192.79z M189.56,359.34
		c-2.83,0-4.9-0.91-6.7-2.96c-1.84-2.08-2.52-4.31-2.15-7.05l12.93-98.86c0.45-3.44,2.62-6.1,5.61-7.21v20.06h16v-20.64h50.44v20.64
		h16v-20.06c3,1.11,5.16,3.78,5.62,7.2l12.93,98.94c0.37,2.69-0.31,4.91-2.15,6.99c-1.82,2.05-3.88,2.97-6.71,2.97H189.56V359.34z
		 M328.74,356.59c-1.06,1.28-2.74,2.75-6.52,2.75h-7.59c1.47-3.78,2.05-7.83,1.46-12.08l-12.92-98.89c-0.26-2-0.82-3.88-1.5-5.69
		h7.64c4.6,0,8.24,3.2,8.85,7.78l12.93,98.94C331.45,352.07,330.76,354.3,328.74,356.59z"/>
	<path style="fill:#007BFF;" d="M401.35,252.56l21.82,22.01l-21.8,21.81l11.31,11.31l33.07-33.07L412.7,241.3L401.35,252.56z"/>
	<path style="fill:#007BFF;" d="M99.06,241.3l-33.05,33.32l33.07,33.07l11.31-11.31l-21.81-21.81l21.83-22.01L99.06,241.3z"/>
</g>
</svg>
