<?xml version="1.0" encoding="utf-8"?>
<!-- Generator: Adobe Illustrator 26.0.0, SVG Export Plug-In . SVG Version: 6.00 Build 0)  -->
<svg version="1.1" id="Layer_1" xmlns="http://www.w3.org/2000/svg" xmlns:xlink="http://www.w3.org/1999/xlink" x="0px" y="0px"
	 viewBox="0 0 512 512" style="enable-background:new 0 0 512 512;" xml:space="preserve">
<path style="fill:#007BFF;" d="M510.1,211.34c3.24,4.47,2.24,10.72-2.23,13.96l-74.82,54.24c-1.77,1.28-3.83,1.9-5.86,1.9
	c-2.96,0-5.89-1.31-7.86-3.81l-17.23-21.87c-3.42-4.34-2.67-10.63,1.67-14.04c4.34-3.42,10.63-2.67,14.04,1.67l11.28,14.32
	l67.04-48.6C500.6,205.87,506.85,206.87,510.1,211.34z M184.49,256c0,32.29-26.27,58.56-58.56,58.56S67.37,288.29,67.37,256
	s26.27-58.56,58.56-58.56S184.49,223.71,184.49,256L184.49,256z M164.49,256c0-21.26-17.3-38.56-38.56-38.56S87.37,234.74,87.37,256
	s17.3,38.56,38.56,38.56S164.49,277.26,164.49,256L164.49,256z M496.13,400.93l-67.04,48.6l-11.28-14.32
	c-3.42-4.34-9.7-5.09-14.04-1.67c-4.34,3.42-5.09,9.7-1.67,14.04l17.23,21.87c1.97,2.5,4.9,3.81,7.86,3.81
	c2.04,0,4.09-0.62,5.86-1.9l74.82-54.24c4.47-3.24,5.47-9.49,2.23-13.97C506.85,398.69,500.6,397.69,496.13,400.93L496.13,400.93z
	 M479.67,467.14v32.2c0,5.52-4.48,10-10,10H363.51c-5.52,0-10-4.48-10-10v-41.53h-57.65c-2.65,0-5.2-1.05-7.07-2.93
	s-2.93-4.42-2.93-7.07V266h-33.99v1.59c0,9.71-7.9,17.61-17.62,17.61c-6.54,0-11.94,3.62-14.45,9.67
	c-2.51,6.06-1.25,12.43,3.38,17.06c3.33,3.33,5.16,7.75,5.16,12.46s-1.83,9.13-5.16,12.46l-16.39,16.39
	c-3.33,3.33-7.75,5.16-12.46,5.16s-9.13-1.83-12.46-5.16c-4.62-4.62-11-5.88-17.05-3.38c-6.06,2.51-9.67,7.91-9.67,14.45
	c0,9.71-7.9,17.61-17.62,17.61h-23.18c-9.71,0-17.61-7.9-17.61-17.61c0-6.55-3.61-11.96-9.67-14.46
	c-6.05-2.51-12.43-1.24-17.06,3.39c-3.33,3.33-7.75,5.16-12.46,5.16s-9.13-1.83-12.46-5.16L28.7,336.85
	c-3.33-3.33-5.16-7.75-5.16-12.46s1.83-9.13,5.16-12.46c4.62-4.62,5.88-11,3.37-17.05s-7.91-9.67-14.45-9.67
	C7.9,285.21,0,277.31,0,267.59v-23.18c0-9.71,7.9-17.62,17.61-17.62c6.54,0,11.94-3.62,14.45-9.67s1.25-12.43-3.38-17.05
	c-3.33-3.33-5.16-7.75-5.16-12.46s1.83-9.13,5.16-12.46l16.39-16.39c3.33-3.33,7.75-5.16,12.46-5.16s9.13,1.83,12.46,5.16
	c4.62,4.62,11,5.88,17.06,3.38s9.67-7.91,9.67-14.45c0-9.71,7.9-17.62,17.61-17.62h23.19c9.71,0,17.62,7.9,17.62,17.62
	c0,6.54,3.62,11.94,9.67,14.45c6.06,2.51,12.43,1.25,17.06-3.38c3.33-3.33,7.75-5.16,12.46-5.16s9.13,1.83,12.46,5.16l16.4,16.4
	c3.33,3.33,5.16,7.75,5.16,12.46s-1.83,9.13-5.16,12.46c-4.62,4.62-5.88,11-3.38,17.06c2.51,6.06,7.91,9.67,14.45,9.67
	c9.71,0,17.62,7.9,17.62,17.62V246h33.99V64.18c0-5.52,4.48-10,10-10h57.65V12.66c0-5.52,4.48-10,10-10h106.17c5.52,0,10,4.48,10,10
	s-4.48,10-10,10h-96.17v83.05h86.17v-22.2c0-5.52,4.48-10,10-10s10,4.48,10,10v32.2c0,5.52-4.48,10-10,10H363.51
	c-5.52,0-10-4.48-10-10V74.18h-47.65V246h47.65v-41.53c0-5.52,4.48-10,10-10h106.17c5.52,0,10,4.48,10,10s-4.48,10-10,10h-96.17
	v83.05h86.17v-22.2c0-5.52,4.48-10,10-10s10,4.48,10,10v32.2c0,5.52-4.48,10-10,10H363.51c-5.52,0-10-4.48-10-10V266h-47.65v171.82
	h47.65v-41.53c0-5.52,4.48-10,10-10h106.17c5.52,0,10,4.48,10,10s-4.48,10-10,10h-96.17v83.05h86.17v-22.2c0-5.52,4.48-10,10-10
	S479.67,461.62,479.67,467.14L479.67,467.14z M231.86,246.72c-13.65-0.86-25.22-9.1-30.54-21.94s-2.97-26.85,6.08-37.11
	l-13.13-13.13c-10.26,9.05-24.27,11.4-37.11,6.08c-12.84-5.32-21.08-16.88-21.94-30.54h-18.56c-0.86,13.65-9.1,25.22-21.94,30.54
	s-26.85,2.97-37.11-6.08l-13.13,13.13c9.05,10.26,11.4,24.27,6.08,37.11s-16.89,21.08-30.54,21.94v18.56
	c13.65,0.86,25.22,9.1,30.54,21.94s2.97,26.85-6.08,37.11l13.13,13.13c10.27-9.05,24.28-11.41,37.12-6.1
	c12.84,5.32,21.08,16.89,21.94,30.56h18.56c0.86-13.65,9.1-25.22,21.94-30.54s26.85-2.97,37.11,6.08l13.13-13.13
	c-9.05-10.26-11.4-24.27-6.08-37.11s16.88-21.08,30.54-21.94L231.86,246.72L231.86,246.72z M417.81,51.57
	c-3.42-4.34-9.7-5.09-14.04-1.67c-4.34,3.42-5.09,9.71-1.67,14.04l17.23,21.87c1.97,2.5,4.9,3.81,7.86,3.81
	c2.04,0,4.09-0.62,5.86-1.9l74.82-54.24c4.47-3.24,5.47-9.49,2.23-13.97c-3.24-4.47-9.49-5.47-13.97-2.23l-67.04,48.6L417.81,51.57z
	"/>
</svg>
