<?xml version="1.0" encoding="utf-8"?>
<!-- Generator: Adobe Illustrator 26.0.0, SVG Export Plug-In . SVG Version: 6.00 Build 0)  -->
<svg version="1.1" id="Camada_1" xmlns="http://www.w3.org/2000/svg" xmlns:xlink="http://www.w3.org/1999/xlink" x="0px" y="0px"
	 viewBox="0 0 512 512" style="enable-background:new 0 0 512 512;" xml:space="preserve">
<path style="fill-rule:evenodd;clip-rule:evenodd;fill:#007BFF;" d="M53.33,410.67c0,38.29,31.04,69.33,69.33,69.33
	S192,448.96,192,410.67c0-32.82-22.81-60.32-53.44-67.5c0.07-0.6,0.1-1.21,0.1-1.83V304l0,0c0.01-20.61,16.72-37.33,37.33-37.33
	h149.33c44.18,0,80-35.82,80-80v-17.86c30.58-7.22,53.33-34.69,53.33-67.48c0-38.29-31.04-69.33-69.33-69.33S320,63.04,320,101.33
	c0,32.78,22.75,60.25,53.33,67.48v17.86c0,26.51-21.49,48-48,48H176c-13.75,0-26.56,4-37.33,10.9v-74.9c0-0.62-0.04-1.23-0.1-1.83
	c30.63-7.19,53.44-34.68,53.44-67.5C192,63.04,160.96,32,122.67,32s-69.33,31.04-69.33,69.33c0,32.82,22.81,60.32,53.44,67.5
	c-0.07,0.6-0.1,1.21-0.1,1.83v133.32v37.35c0,0.62,0.04,1.23,0.1,1.83C76.14,350.35,53.33,377.85,53.33,410.67z M122.67,448
	c-20.62,0-37.33-16.71-37.33-37.33s16.71-37.33,37.33-37.33S160,390.05,160,410.67S143.29,448,122.67,448z M122.67,138.67
	c-20.62,0-37.33-16.71-37.33-37.33S102.05,64,122.67,64S160,80.71,160,101.33S143.29,138.67,122.67,138.67z M352,101.33
	c0,20.62,16.71,37.33,37.33,37.33s37.33-16.71,37.33-37.33S409.95,64,389.33,64S352,80.71,352,101.33z"/>
</svg>
