<?xml version="1.0" encoding="utf-8"?>
<!-- Generator: Adobe Illustrator 26.0.0, SVG Export Plug-In . SVG Version: 6.00 Build 0)  -->
<svg version="1.1" id="Layer_1" xmlns="http://www.w3.org/2000/svg" xmlns:xlink="http://www.w3.org/1999/xlink" x="0px" y="0px"
	 viewBox="0 0 512 512" style="enable-background:new 0 0 512 512;" xml:space="preserve">
<g>
	<path style="fill:#007BFF;" d="M466.46,23.97H45.61C25.44,23.97,9,40.42,9,60.59v390.9c0,20.17,16.45,36.54,36.62,36.54h420.93
		c20.17,0,36.54-16.37,36.54-36.54V60.51C503,40.42,486.63,23.97,466.46,23.97L466.46,23.97z M22.11,60.59
		c0-12.96,10.55-23.43,23.43-23.43h420.93c12.88,0,23.35,10.47,23.35,23.35v46.93H22.11V60.59z M489.89,451.49
		c0,12.88-10.47,23.35-23.35,23.35H45.61c-12.96,0-23.43-10.47-23.43-23.35V120.63h467.7L489.89,451.49z"/>
	<path style="fill:#007BFF;" d="M45.61,457.93h420.77c3.65,0,6.59-2.95,6.59-6.59v-307.2c0-3.65-2.95-6.59-6.59-6.59H45.61
		c-3.65,0-6.59,2.95-6.59,6.59v307.28c0,1.71,0.7,3.41,1.94,4.65C42.2,457.23,43.83,457.93,45.61,457.93L45.61,457.93z
		 M52.21,150.65h407.58v294.09H52.21V150.65z"/>
	<path style="fill:#007BFF;" d="M62.68,65.71H46.86c-3.65,0-6.59,2.95-6.59,6.59s2.95,6.59,6.59,6.59h15.9
		c3.65,0,6.59-2.95,6.59-6.59C69.28,68.65,66.33,65.71,62.68,65.71z"/>
	<path style="fill:#007BFF;" d="M106.12,65.71h-15.9c-3.65,0-6.59,2.95-6.59,6.59s2.95,6.59,6.59,6.59h15.9
		c3.65,0,6.59-2.95,6.59-6.59S109.77,65.71,106.12,65.71z"/>
	<path style="fill:#007BFF;" d="M149.57,65.71h-15.9c-3.65,0-6.59,2.95-6.59,6.59s2.95,6.59,6.59,6.59h15.9
		c3.65,0,6.59-2.95,6.59-6.59S153.21,65.71,149.57,65.71z"/>
	<path style="fill:#007BFF;" d="M463.9,65.71H286.02c-3.65,0-6.59,2.95-6.59,6.59s2.95,6.59,6.59,6.59H463.9
		c3.65,0,6.59-2.95,6.59-6.59S467.55,65.71,463.9,65.71z"/>
	<path style="fill:#007BFF;" d="M152.13,389.43H75.71c-3.65,0-6.59,2.95-6.59,6.59c0,3.65,2.95,6.59,6.59,6.59h76.41
		c3.65,0,6.59-2.95,6.59-6.59C158.64,392.38,155.69,389.43,152.13,389.43z"/>
	<path style="fill:#007BFF;" d="M119.62,414.49H75.71c-3.65,0-6.59,2.95-6.59,6.59c0,3.65,2.95,6.59,6.59,6.59h43.91
		c3.65,0,6.59-2.95,6.59-6.59C126.22,417.44,123.27,414.49,119.62,414.49z"/>
	<path style="fill:#007BFF;" d="M143.75,316.9c41.12,0,74.63-33.44,74.63-74.63s-33.44-74.63-74.63-74.63s-74.63,33.51-74.63,74.63
		S102.63,316.9,143.75,316.9L143.75,316.9z M143.75,180.75c33.9,0,61.44,27.62,61.44,61.52s-27.54,61.44-61.44,61.44
		s-61.52-27.54-61.52-61.44S109.85,180.75,143.75,180.75L143.75,180.75z"/>
	<path style="fill:#007BFF;" d="M176.02,248.63h10.4c3.65,0,6.59-2.95,6.59-6.59s-2.95-6.59-6.59-6.59h-10.4
		c-3.65,0-6.59,2.95-6.59,6.59S172.37,248.63,176.02,248.63z"/>
	<path style="fill:#007BFF;" d="M111.55,248.63c3.65,0,6.59-2.95,6.59-6.59s-2.95-6.59-6.59-6.59h-10.4c-3.65,0-6.59,2.95-6.59,6.59
		s2.95,6.59,6.59,6.59H111.55z"/>
	<path style="fill:#007BFF;" d="M143.83,265.93c-5.35,0-9.77-3.65-9.77-8.15c0-3.65-2.95-6.59-6.59-6.59
		c-3.65,0-6.59,2.95-6.59,6.59c0,9.62,6.9,17.69,16.37,20.32v1.86c0,3.65,2.95,6.59,6.59,6.59s6.59-2.95,6.59-6.59v-1.86
		c9.39-2.64,16.37-10.71,16.37-20.32c0-11.79-10.24-21.33-22.88-21.33c-5.35,0-9.77-3.65-9.77-8.15s4.34-8.15,9.77-8.15
		c5.35,0,9.77,3.65,9.77,8.15c0,3.65,2.95,6.59,6.59,6.59s6.59-2.95,6.59-6.59c0-9.62-6.9-17.69-16.37-20.32v-2.25
		c0-3.65-2.95-6.59-6.59-6.59s-6.59,2.95-6.59,6.59v2.25c-9.39,2.64-16.37,10.71-16.37,20.32c0,11.79,10.24,21.33,22.88,21.33
		c5.35,0,9.77,3.65,9.77,8.15C153.6,262.28,149.18,265.93,143.83,265.93z"/>
	<path style="fill:#007BFF;" d="M225.9,365.07h-37.55c-3.65,0-6.59,2.95-6.59,6.59v49.42c0,3.65,2.95,6.59,6.59,6.59h37.55
		c3.65,0,6.59-2.95,6.59-6.59v-49.42C232.49,368.02,229.55,365.07,225.9,365.07z M219.38,414.49h-24.44v-36.23h24.44V414.49z"/>
	<path style="fill:#007BFF;" d="M293.62,288.35H256c-3.65,0-6.59,2.95-6.59,6.59v126.14c0,3.65,2.95,6.59,6.59,6.59h37.55
		c3.65,0,6.59-2.95,6.59-6.59V294.94C300.14,291.3,297.19,288.35,293.62,288.35z M287.03,414.49h-24.44V301.46h24.44V414.49z"/>
	<path style="fill:#007BFF;" d="M361.27,343.97h-37.55c-3.65,0-6.59,2.95-6.59,6.59v70.52c0,3.65,2.95,6.59,6.59,6.59h37.55
		c3.65,0,6.59-2.95,6.59-6.59v-70.52C367.79,346.92,364.92,343.97,361.27,343.97z M354.68,414.49h-24.44v-57.33h24.44V414.49z"/>
	<path style="fill:#007BFF;" d="M428.92,241.88h-37.55c-3.65,0-6.59,2.95-6.59,6.59v172.61c0,3.65,2.95,6.59,6.59,6.59h37.55
		c3.65,0,6.59-2.95,6.59-6.59V248.4C435.51,244.83,432.56,241.88,428.92,241.88L428.92,241.88z M422.32,414.49h-24.44v-159.5h24.44
		V414.49z"/>
	<path style="fill:#007BFF;" d="M325.97,262.44l69.35-69.35v18.54c0,3.65,2.95,6.59,6.59,6.59c3.65,0,6.59-2.95,6.59-6.59v-34.44
		c0-3.65-2.95-6.59-6.59-6.59h-34.44c-3.65,0-6.59,2.95-6.59,6.59c0,3.65,2.95,6.59,6.59,6.59h18.54l-64.7,64.7l-26.84-26.84
		c-2.56-2.56-6.75-2.56-9.31,0L235.6,271.2c-2.56,2.56-2.56,6.75,0,9.31c1.32,1.32,2.95,1.94,4.65,1.94s3.34-0.62,4.65-1.94
		l44.92-44.92l26.84,26.84C319.22,265,323.41,265,325.97,262.44z"/>
</g>
</svg>
