<?xml version="1.0" encoding="utf-8"?>
<!-- Generator: Adobe Illustrator 26.0.0, SVG Export Plug-In . SVG Version: 6.00 Build 0)  -->
<svg version="1.1" id="Layer_1" xmlns="http://www.w3.org/2000/svg" xmlns:xlink="http://www.w3.org/1999/xlink" x="0px" y="0px"
	 viewBox="0 0 512 512" style="enable-background:new 0 0 512 512;" xml:space="preserve">
<g>
	<path style="fill:#007BFF;" d="M444.68,12.73c-3.68-2.16-8.24-2.16-12,0c-0.72,0.4-1.36,0.88-1.92,1.44v0.08h-0.08
		c-0.64,0.56-1.12,1.04-1.52,1.68c-1.6,2-2.4,4.56-2.4,7.2v79.2l-41.52,24l-41.52-24l-0.08-65.12v-2.08V23.05
		c0-3.92-2-7.68-5.28-9.84c-0.24-0.16-0.48-0.32-0.72-0.48c-1.84-1.12-3.92-1.6-6-1.6H96.76c-49.44,0-89.6,40.24-89.6,89.6v206.96
		c0,49.44,40.16,89.6,89.6,89.6h13.84v65.6c0,15.6,9.28,29.36,23.6,35.2c4.72,1.92,9.6,2.8,14.32,2.8c9.84,0,19.36-3.92,26.56-11.36
		l92.72-92.24h57.76c0.16,0.72,0.24,1.36,0.4,2.08c2.48,11.84,8.32,22.72,16.96,31.44c11.84,11.76,27.6,18.32,44.48,18.4h0.08
		c16.72,0,32.48-6.56,44.32-18.4c11.36-11.36,17.76-26.32,18.32-42.32c0.08-0.72,0.08-1.36,0.08-2.08v-29.2v-140.4
		c8.4-5.44,15.92-11.84,22.56-18.96c10.4-11.2,18.56-24.16,24-38.4v-0.08c5.28-13.52,8.08-28.08,8.08-42.96
		C504.76,73.69,481.72,33.93,444.68,12.73L444.68,12.73z M324.6,373.29h-61.76c-3.2,0-6.24,1.28-8.48,3.52l-96.4,95.84
		c-5.92,6.08-12.8,4-14.72,3.2c-2.08-0.88-8.64-4.16-8.64-12.96v-77.6c0-6.64-5.36-12-12-12H96.76c-36.16,0-65.6-29.44-65.6-65.6
		V100.73c0-36.16,29.44-65.6,65.6-65.6h200.88c-0.64,0.72-1.2,1.36-1.84,2.08c-19.2,21.6-30.24,49.68-30.24,79.2
		c0,42.8,22.48,81.68,59.04,103.2L324.6,373.29L324.6,373.29z M480.84,117.53c-0.16,12.96-3.04,25.52-8.08,37.12
		c-2,4.48-4.32,8.88-6.88,13.04c-8.32,13.04-19.84,24.16-33.76,32.08c-4,2.24-6.4,6.56-6.08,11.2l0.16,159.44v0.08v15.92
		c0,3.12-0.32,6.08-1.12,9.04c-1.6,6.96-5.12,13.28-10.32,18.4c-7.28,7.36-16.96,11.36-27.28,11.36c0,0,0,0-0.08,0
		c-10.4-0.08-20.16-4.08-27.44-11.36c-4.72-4.72-8.08-10.32-9.84-16.56c-1.04-3.44-1.52-7.12-1.52-10.8v-13.2v-160.8
		c0-4.56-2.56-8.64-6.56-10.72c-32.4-16.48-52.48-49.12-52.48-85.28c0-26.56,11.2-51.76,30.08-69.6l0.08,62.4
		c0,4.24,2.24,8.24,6,10.32l53.44,30.96c3.76,2.16,8.32,2.16,12.08,0l53.52-30.88c3.68-2.16,6-6.16,6-10.4v-7.44V46.89
		c18.88,17.84,30.08,42.96,30.08,69.52L480.84,117.53z"/>
	<path style="fill:#007BFF;" d="M89.92,157.7h77.31c6.63,0,12-5.37,12-12s-5.37-12-12-12H89.92c-6.63,0-12,5.37-12,12
		S83.29,157.7,89.92,157.7z"/>
	<path style="fill:#007BFF;" d="M89.92,216.21h117.31c6.63,0,12-5.37,12-12s-5.37-12-12-12H89.92c-6.63,0-12,5.37-12,12
		S83.29,216.21,89.92,216.21z"/>
	<path style="fill:#007BFF;" d="M263.22,250.71H89.92c-6.63,0-12,5.37-12,12s5.37,12,12,12h173.31c6.63,0,12-5.37,12-12
		S269.86,250.71,263.22,250.71z"/>
</g>
</svg>
