<?xml version="1.0" encoding="utf-8"?>
<!-- Generator: Adobe Illustrator 26.0.0, SVG Export Plug-In . SVG Version: 6.00 Build 0)  -->
<svg version="1.1" id="Capa_1" xmlns="http://www.w3.org/2000/svg" xmlns:xlink="http://www.w3.org/1999/xlink" x="0px" y="0px"
	 viewBox="0 0 512 512" style="enable-background:new 0 0 512 512;" xml:space="preserve">
<g>
	<g>
		<path style="fill:#007BFF;" d="M440.37,88.18H31.55C14.15,88.18,0,102.33,0,119.73v272.55c0,17.4,14.15,31.55,31.55,31.55h8.02
			c4.14,0,7.5-3.36,7.5-7.5s-3.36-7.5-7.5-7.5h-8.02c-9.12,0-16.55-7.42-16.55-16.55V119.73c0-9.12,7.42-16.55,16.55-16.55h408.82
			c4.14,0,7.5-3.36,7.5-7.5C447.87,91.53,444.51,88.18,440.37,88.18z"/>
	</g>
</g>
<g>
	<g>
		<path style="fill:#007BFF;" d="M480.45,88.18h-8.02c-4.14,0-7.5,3.36-7.5,7.5s3.36,7.5,7.5,7.5h8.02
			c9.12,0,16.55,7.42,16.55,16.55v272.55c0,9.12-7.42,16.55-16.55,16.55H71.63c-4.14,0-7.5,3.36-7.5,7.5s3.36,7.5,7.5,7.5h408.82
			c17.4,0,31.55-14.15,31.55-31.55V119.73C512,102.33,497.85,88.18,480.45,88.18z"/>
	</g>
</g>
<g>
	<g>
		<path style="fill:#007BFF;" d="M239.97,288.58h-72.15c-4.14,0-7.5,3.36-7.5,7.5s3.36,7.5,7.5,7.5h72.14c4.14,0,7.5-3.36,7.5-7.5
			C247.47,291.94,244.11,288.58,239.97,288.58z"/>
	</g>
</g>
<g>
	<g>
		<path style="fill:#007BFF;" d="M135.76,288.58H63.61c-4.14,0-7.5,3.36-7.5,7.5s3.36,7.5,7.5,7.5h72.15c4.14,0,7.5-3.36,7.5-7.5
			C143.26,291.94,139.9,288.58,135.76,288.58z"/>
	</g>
</g>
<g>
	<g>
		<path style="fill:#007BFF;" d="M239.97,336.68H63.61c-4.14,0-7.5,3.36-7.5,7.5s3.36,7.5,7.5,7.5h176.35c4.14,0,7.5-3.36,7.5-7.5
			C247.47,340.03,244.11,336.68,239.97,336.68z"/>
	</g>
</g>
<g>
	<g>
		<path style="fill:#007BFF;" d="M448.39,288.58h-72.15c-4.14,0-7.5,3.36-7.5,7.5s3.36,7.5,7.5,7.5h72.15c4.14,0,7.5-3.36,7.5-7.5
			C455.89,291.94,452.53,288.58,448.39,288.58z"/>
	</g>
</g>
<g>
	<g>
		<path style="fill:#007BFF;" d="M344.18,288.58h-72.14c-4.14,0-7.5,3.36-7.5,7.5s3.36,7.5,7.5,7.5h72.14c4.14,0,7.5-3.36,7.5-7.5
			C351.68,291.94,348.32,288.58,344.18,288.58z"/>
	</g>
</g>
<g>
	<g>
		<path style="fill:#007BFF;" d="M344.18,336.68h-72.14c-4.14,0-7.5,3.36-7.5,7.5s3.36,7.5,7.5,7.5h72.14c4.14,0,7.5-3.36,7.5-7.5
			C351.68,340.03,348.32,336.68,344.18,336.68z"/>
	</g>
</g>
<g>
	<g>
		<path style="fill:#007BFF;" d="M143.26,207.9c0-12.98-10.56-23.53-23.53-23.53H79.64c-12.98,0-23.53,10.56-23.53,23.53v24.05
			c0,12.98,10.56,23.53,23.53,23.53h40.08c12.98,0,23.53-10.56,23.53-23.53L143.26,207.9L143.26,207.9z M88.18,240.48h-8.53
			c-4.71,0-8.53-3.83-8.53-8.53V207.9c0-4.71,3.83-8.53,8.53-8.53h8.53V240.48z M128.26,231.95c0,4.71-3.83,8.53-8.53,8.53h-16.55
			v-41.11h16.55c4.71,0,8.53,3.83,8.53,8.53V231.95L128.26,231.95z"/>
	</g>
</g>
<g>
	<g>
		<path style="fill:#007BFF;" d="M385.56,178.52c-2.47-3.33-7.17-4.02-10.49-1.55c-3.33,2.47-4.02,7.17-1.55,10.49
			c4.12,5.55,4.33,13.17,0.52,18.94c-2.28,3.46-1.33,8.11,2.13,10.39c1.27,0.84,2.71,1.24,4.12,1.24c2.43,0,4.82-1.18,6.27-3.37
			C393.83,203.65,393.43,189.12,385.56,178.52z"/>
	</g>
</g>
<g>
	<g>
		<path style="fill:#007BFF;" d="M411.74,159.99c-2.43-3.35-7.12-4.1-10.48-1.67s-4.1,7.12-1.67,10.48
			c12.2,16.82,12.35,39.52,0.36,56.49c-2.39,3.38-1.58,8.06,1.8,10.45c1.31,0.93,2.83,1.38,4.32,1.38c2.35,0,4.67-1.1,6.13-3.17
			C427.91,211.73,427.72,182.01,411.74,159.99z"/>
	</g>
</g>
<g>
	<g>
		<path style="fill:#007BFF;" d="M438.07,141.68c-2.41-3.37-7.1-4.14-10.46-1.73c-3.37,2.41-4.14,7.1-1.73,10.46
			c19.91,27.81,20.06,65.28,0.38,93.25c-2.38,3.39-1.57,8.07,1.82,10.45c1.31,0.92,2.82,1.37,4.31,1.37c2.36,0,4.68-1.11,6.14-3.18
			C461.87,219.12,461.69,174.67,438.07,141.68z"/>
	</g>
</g>
</svg>
