<?xml version="1.0" encoding="utf-8"?>
<!-- Generator: Adobe Illustrator 26.0.0, SVG Export Plug-In . SVG Version: 6.00 Build 0)  -->
<svg version="1.1" id="Camada_1" xmlns="http://www.w3.org/2000/svg" xmlns:xlink="http://www.w3.org/1999/xlink" x="0px" y="0px"
	 viewBox="0 0 512 512" style="enable-background:new 0 0 512 512;" xml:space="preserve">
<path style="fill:#007BFF;" d="M507.61,401.54L362.07,256L498.7,119.37c17.58-17.58,17.67-45.97,0.07-63.57L456.2,13.23
	c-17.5-17.5-46-17.49-63.52,0.02L256,149.93L110.46,4.39c-5.86-5.86-15.35-5.86-21.21,0L4.39,89.25c-5.86,5.86-5.86,15.35,0,21.21
	L149.93,256L47.82,358.11c-1.65,1.64-2.89,3.65-3.62,5.86L0.77,492.26c-2.62,7.85,1.62,16.35,9.47,18.97c3.08,1.03,6.42,1.03,9.5,0
	l128.28-43.43c2.21-0.74,4.22-1.98,5.86-3.62L256,362.07l145.54,145.54c5.85,5.85,15.36,5.86,21.21,0l84.85-84.85
	C513.47,416.9,513.47,407.4,507.61,401.54L507.61,401.54z M413.89,34.47c5.82-5.82,15.28-5.83,21.09-0.02l42.57,42.57
	c5.85,5.85,5.8,15.26-0.07,21.14l-21.21,21.22l-63.64-63.64C392.63,55.74,413.89,34.47,413.89,34.47z M371.41,76.95l63.64,63.64
	l-21.21,21.21L350.2,98.16C350.2,98.16,371.41,76.95,371.41,76.95z M36.21,99.85l63.64-63.64l42.43,42.43l-10.61,10.61
	c-5.86,5.86-5.86,15.36,0,21.21c5.86,5.86,15.35,5.86,21.21,0l10.61-10.61l21.21,21.21l-10.61,10.61c-5.86,5.86-5.86,15.35,0,21.21
	s15.35,5.86,21.21,0l10.61-10.61l28.87,28.87l-63.64,63.64C171.14,234.78,36.21,99.85,36.21,99.85z M328.98,119.37l21.21,21.21
	L100.85,389.93l-21.21-21.21C87.98,360.38,316.73,131.63,328.98,119.37z M38.72,473.28l26.27-76.79l50.53,50.53L38.72,473.28z
	 M143.28,432.36l-21.21-21.21L371.41,161.8l21.21,21.21C386.72,188.92,146.01,429.63,143.28,432.36L143.28,432.36z M412.15,475.79
	L277.21,340.85l63.64-63.64l28.87,28.87l-10.61,10.61c-5.86,5.86-5.86,15.36,0,21.21c5.86,5.86,15.36,5.86,21.21,0l10.61-10.61
	l21.21,21.21l-10.61,10.61c-5.86,5.86-5.86,15.36,0,21.21c5.86,5.86,15.36,5.86,21.21,0l10.61-10.61l42.43,42.43L412.15,475.79
	L412.15,475.79z"/>
</svg>
