<?xml version="1.0" encoding="utf-8"?>
<!-- Generator: Adobe Illustrator 26.0.0, SVG Export Plug-In . SVG Version: 6.00 Build 0)  -->
<svg version="1.1"
	 id="Camada_1" shape-rendering="geometricPrecision" image-rendering="optimizeQuality" text-rendering="geometricPrecision"
	 xmlns="http://www.w3.org/2000/svg" xmlns:xlink="http://www.w3.org/1999/xlink" x="0px" y="0px" viewBox="0 0 512 512"
	 style="enable-background:new 0 0 512 512;" xml:space="preserve">
<g>
	<path style="fill-rule:evenodd;clip-rule:evenodd;fill:#007BFF;" d="M88.11,226.18c-6.69,0-12.12,5.44-12.12,12.12
		c0,6.7,5.44,12.13,12.12,12.13h82.65c1.57,0,3.07,0.66,4.13,1.83l26.9,29.62c0.74,0.83,1.48,1.64,2.2,2.46
		c8.92,9.97,15.96,17.85,36.17,17.85h32.64c20.2,0,27.25-7.88,36.17-17.85c0.73-0.82,1.46-1.63,2.2-2.45l26.9-29.64
		c1.06-1.16,2.56-1.83,4.13-1.83h82.65c6.68,0,12.13-5.44,12.13-12.13c0-6.68-5.45-12.12-12.13-12.12L88.11,226.18L88.11,226.18z
		 M272.8,313.37h-32.64c-25.2,0-35.02-10.97-44.49-21.58c-0.71-0.79-1.42-1.6-2.15-2.39l-25.23-27.79H88.11
		c-12.85,0-23.3-10.46-23.3-23.31c0-12.84,10.46-23.3,23.3-23.3h336.74c12.85,0,23.31,10.46,23.31,23.3
		c0,12.86-10.46,23.31-23.31,23.31h-80.17l-25.23,27.79c-0.72,0.79-1.44,1.6-2.14,2.39C307.82,302.4,298,313.37,272.8,313.37
		L272.8,313.37z"/>
	<path style="fill-rule:evenodd;clip-rule:evenodd;fill:#007BFF;" d="M337.58,226.18c-3.08,0-5.59-2.5-5.59-5.59
		c0-31.82-33.87-57.71-75.5-57.71c-41.64,0-75.51,25.89-75.51,57.71c0,3.09-2.5,5.59-5.59,5.59s-5.59-2.5-5.59-5.59
		c0-37.98,38.89-68.89,86.69-68.89c47.79,0,86.68,30.9,86.68,68.89C343.17,223.68,340.66,226.18,337.58,226.18z M393.05,437.51
		c-10.18,0-18.46-8.28-18.46-18.46v-31.37c0-1.61-0.38-2.85-1.27-4.19l-62.68-94.76c-1.7-2.57-0.99-6.04,1.58-7.74
		c2.57-1.7,6.03-1,7.74,1.56c0,0,0,0,0,0.01l62.68,94.76c2.1,3.17,3.12,6.56,3.12,10.36v31.37c0,4.01,3.26,7.28,7.28,7.28
		c4.01,0,7.28-3.27,7.28-7.28v-32.23c0-1.27-0.23-2.26-0.8-3.39L337.2,258.51c-1.37-2.76-0.26-6.11,2.5-7.5
		c2.76-1.37,6.13-0.26,7.5,2.52l62.32,124.91c1.35,2.7,1.98,5.37,1.98,8.38v32.23C411.51,429.23,403.23,437.51,393.05,437.51
		L393.05,437.51z M119.93,437.51c-10.18,0-18.46-8.28-18.46-18.46v-32.23c0-3.02,0.63-5.68,1.97-8.38l62.32-124.91
		c1.39-2.77,4.74-3.89,7.5-2.52c2.76,1.39,3.89,4.74,2.5,7.5l-62.32,124.92c-0.56,1.13-0.79,2.12-0.79,3.39v32.23
		c0,4.01,3.26,7.28,7.28,7.28c4.01,0,7.28-3.27,7.28-7.28v-31.37c0-3.81,1.01-7.2,3.11-10.36L193,282.56
		c1.7-2.57,5.16-3.28,7.73-1.58c0,0,0.01,0.01,0.01,0.01c2.57,1.7,3.27,5.17,1.57,7.74l-62.68,94.76c-0.89,1.34-1.26,2.59-1.26,4.19
		v31.37C138.38,429.23,130.09,437.51,119.93,437.51L119.93,437.51z"/>
	<path style="fill-rule:evenodd;clip-rule:evenodd;fill:#007BFF;" d="M328.77,276.42H184.21c-3.09,0-5.59-2.5-5.59-5.59
		s2.5-5.59,5.59-5.59h144.55c3.09,0,5.58,2.5,5.58,5.59S331.85,276.42,328.77,276.42z M133.29,226.18c-3.1,0-5.59-2.5-5.59-5.59
		v-41.12c0-9.37-7.63-17-17-17s-17,7.63-17,17v41.12c0,3.09-2.5,5.59-5.59,5.59c-3.08,0-5.59-2.5-5.59-5.59v-41.12
		c0-15.55,12.64-28.18,28.18-28.18s28.18,12.63,28.18,28.18v41.12C138.88,223.68,136.38,226.18,133.29,226.18L133.29,226.18z
		 M424.86,226.18c-3.09,0-5.59-2.5-5.59-5.59v-41.12c0-9.37-7.63-17-17-17s-16.99,7.63-16.99,17v41.12c0,3.09-2.51,5.59-5.59,5.59
		c-3.1,0-5.59-2.5-5.59-5.59v-41.12c0-15.55,12.63-28.18,28.17-28.18s28.18,12.63,28.18,28.18v41.12
		C430.44,223.68,427.94,226.18,424.86,226.18L424.86,226.18z"/>
	<path style="fill-rule:evenodd;clip-rule:evenodd;fill:#007BFF;" d="M391.39,165.29c-3.1,0-5.59-2.5-5.59-5.59v-41.88
		c-0.01-3.08,2.49-5.58,5.57-5.59c0.01,0,0.01,0,0.02,0c3.09,0,5.59,2.5,5.59,5.59v41.88C396.98,162.79,394.47,165.29,391.39,165.29
		z M413.15,165.29c-3.09,0-5.59-2.5-5.59-5.59v-41.88c0-3.09,2.5-5.59,5.59-5.59s5.59,2.5,5.59,5.59v41.88
		C418.74,162.79,416.24,165.29,413.15,165.29z"/>
	<path style="fill-rule:evenodd;clip-rule:evenodd;fill:#007BFF;" d="M402.26,85.67c-8.19,0-14.85,6.66-14.85,14.85
		s6.66,14.85,14.85,14.85s14.86-6.66,14.86-14.85S410.45,85.67,402.26,85.67z M402.26,126.54c-14.34,0-26.03-11.67-26.03-26.03
		c0-14.35,11.68-26.02,26.02-26.02c14.36,0,26.03,11.68,26.03,26.02C428.29,114.87,416.62,126.54,402.26,126.54z"/>
	<path style="fill-rule:evenodd;clip-rule:evenodd;fill:#007BFF;" d="M438.54,121.64c-0.73,0-1.47-0.14-2.16-0.43l-17.55-7.33
		c-2.84-1.19-4.19-4.45-3.01-7.3c1.19-2.85,4.46-4.2,7.31-3.02l16.26,6.79l61.42-5.8v-8.07l-61.42-5.81l-16.26,6.79
		c-2.85,1.18-6.13-0.16-7.31-3.02c-1.19-2.84,0.15-6.11,2.99-7.3c0,0,0.01,0,0.01,0l17.55-7.33c0.85-0.35,1.77-0.5,2.68-0.41
		l67.87,6.42c2.88,0.27,5.07,2.68,5.07,5.57v18.24c0,2.89-2.19,5.3-5.07,5.57l-67.87,6.42
		C438.88,121.64,438.71,121.64,438.54,121.64L438.54,121.64z M365.99,121.64c-0.18,0-0.35,0-0.53-0.02l-67.87-6.42
		c-2.87-0.27-5.07-2.68-5.07-5.57V91.39c0-2.89,2.2-5.3,5.06-5.57l67.88-6.42c0.91-0.09,1.83,0.06,2.68,0.41l17.55,7.33
		c2.85,1.19,4.2,4.46,3.01,7.31c0,0,0,0,0,0c-1.19,2.84-4.47,4.19-7.31,3l-16.27-6.79l-61.42,5.81v8.07l61.42,5.8l16.27-6.79
		c2.84-1.19,6.12,0.16,7.31,3.02c1.19,2.84-0.16,6.11-3.02,7.3l-17.55,7.32C367.46,121.5,366.74,121.64,365.99,121.64z
		 M99.81,165.29c-3.09,0-5.59-2.5-5.59-5.59v-41.88c0-3.09,2.5-5.59,5.59-5.59s5.59,2.5,5.59,5.59v41.88
		C105.41,162.79,102.9,165.29,99.81,165.29z M121.59,165.29c-3.08,0-5.59-2.5-5.59-5.59v-41.88c0-3.09,2.5-5.59,5.59-5.59
		s5.59,2.5,5.59,5.59v41.88C127.18,162.79,124.68,165.29,121.59,165.29z"/>
	<path style="fill-rule:evenodd;clip-rule:evenodd;fill:#007BFF;" d="M110.7,85.67c-8.19,0-14.85,6.66-14.85,14.85
		s6.66,14.85,14.85,14.85s14.85-6.66,14.85-14.85S118.89,85.67,110.7,85.67z M110.7,126.54c-14.36,0-26.03-11.67-26.03-26.03
		c0-14.35,11.67-26.02,26.03-26.02c14.35,0,26.02,11.68,26.02,26.02C136.73,114.87,125.05,126.54,110.7,126.54z"/>
	<path style="fill-rule:evenodd;clip-rule:evenodd;fill:#007BFF;" d="M146.01,121.64c-0.73,0-1.47-0.14-2.15-0.43l-16.73-6.99
		c-2.85-1.19-4.2-4.46-3-7.3c1.19-2.85,4.46-4.2,7.3-3l15.45,6.44l61.42-5.8v-8.07l-61.42-5.81l-15.45,6.45
		c-2.84,1.18-6.12-0.16-7.3-3.02c-1.2-2.84,0.15-6.11,3-7.3l16.73-6.99c0.85-0.35,1.77-0.5,2.68-0.41l67.87,6.42
		c2.88,0.27,5.06,2.68,5.06,5.57v18.24c0,2.89-2.19,5.3-5.07,5.57l-67.87,6.42C146.36,121.64,146.18,121.64,146.01,121.64z
		 M73.47,121.64c-0.18,0-0.35,0-0.53-0.02L5.07,115.2C2.19,114.93,0,112.52,0,109.63V91.4c0-2.89,2.19-5.3,5.07-5.57l67.88-6.42
		c0.91-0.09,1.82,0.06,2.68,0.41l18.38,7.66c2.85,1.19,4.19,4.46,3,7.31s-4.46,4.19-7.31,3l-17.1-7.12l-61.43,5.81v8.07l61.43,5.8
		l17.08-7.13c2.85-1.19,6.12,0.16,7.31,3c1.19,2.85-0.16,6.13-3,7.31l-18.37,7.66C74.93,121.5,74.2,121.64,73.47,121.64z
		 M224.46,349.19c-0.52,0-1.05-0.07-1.57-0.23c-2.96-0.86-4.66-3.97-3.8-6.93l10.55-36c0.88-2.96,3.98-4.66,6.94-3.79
		c2.96,0.86,4.66,3.97,3.8,6.93l-10.55,36C229.13,347.55,226.94,349.18,224.46,349.19L224.46,349.19z M288.51,349.19
		c-2.42,0-4.65-1.58-5.36-4.02l-10.55-36c-0.87-2.96,0.83-6.07,3.78-6.93c2.96-0.87,6.07,0.83,6.94,3.79c0,0,0,0,0,0l10.55,36
		c0.86,2.96-0.83,6.07-3.8,6.93C289.56,349.12,289.03,349.19,288.51,349.19L288.51,349.19z"/>
	<path style="fill-rule:evenodd;clip-rule:evenodd;fill:#007BFF;" d="M203.67,400.54H309.3v-51.35H203.67V400.54z M314.89,411.72
		h-116.8c-3.08,0.01-5.58-2.49-5.59-5.57c0-0.01,0-0.01,0-0.02V343.6c0-3.09,2.5-5.59,5.59-5.59h116.8c3.09,0,5.59,2.5,5.59,5.59
		v62.53C320.48,409.22,317.98,411.72,314.89,411.72z"/>
	<path style="fill-rule:evenodd;clip-rule:evenodd;fill:#007BFF;" d="M245.87,382.01h21.23v-14.3h-21.23L245.87,382.01
		L245.87,382.01z M272.69,393.19h-32.4c-3.09,0-5.59-2.5-5.59-5.59v-25.48c0-3.09,2.5-5.59,5.59-5.59h32.41
		c3.09,0,5.59,2.5,5.59,5.59v25.48C278.28,390.69,275.78,393.19,272.69,393.19z"/>
</g>
</svg>
