<?xml version="1.0" encoding="utf-8"?>
<!-- Generator: Adobe Illustrator 26.0.0, SVG Export Plug-In . SVG Version: 6.00 Build 0)  -->
<svg version="1.1" id="Camada_1" xmlns="http://www.w3.org/2000/svg" xmlns:xlink="http://www.w3.org/1999/xlink" x="0px" y="0px"
	 viewBox="0 0 512 512" style="enable-background:new 0 0 512 512;" xml:space="preserve">
<path style="fill:#007BFF;" d="M258.13,416H128V64h224v146.77c0,5.89,4.78,10.67,10.67,10.67s10.67-4.78,10.67-10.67v-72.11h53.33
	v25.49c0,5.89,4.78,10.67,10.67,10.67S448,170.05,448,164.16V96c-0.04-29.44-23.89-53.3-53.33-53.33H85.33
	C55.89,42.7,32.04,66.56,32,96v288c0.04,29.44,23.89,53.3,53.33,53.33h172.8c5.89,0,10.67-4.78,10.67-10.67
	C268.8,420.78,264.02,416,258.13,416z M394.67,64c17.67,0,32,14.33,32,32v21.33h-53.33V64H394.67z M53.33,213.33h53.33v53.33H53.33
	V213.33z M106.67,192H53.33v-53.33h53.33L106.67,192L106.67,192z M53.33,288h53.33v53.33H53.33C53.33,341.33,53.33,288,53.33,288z
	 M53.33,96c0-17.67,14.33-32,32-32h21.33v53.33H53.33C53.33,117.33,53.33,96,53.33,96z M85.33,416c-17.67,0-32-14.33-32-32v-21.33
	h53.33V416H85.33z M437.33,369.39c-5.89,0-10.67,4.78-10.67,10.67V384c0.07,12.09-6.76,23.16-17.6,28.51
	c-5.52,2.06-8.33,8.2-6.27,13.72c1.57,4.21,5.61,6.99,10.11,6.94c1.57,0,3.12-0.35,4.54-1.01c18.73-8.69,30.67-27.51,30.55-48.16
	v-3.95C448,374.16,443.22,369.39,437.33,369.39L437.33,369.39z"/>
<path style="fill:#007BFF;" d="M218.67,165.62c-15.31-8.84-34.88-3.59-43.71,11.71c-2.81,4.87-4.29,10.4-4.29,16.02v104
	c-0.07,17.64,14.17,31.99,31.8,32.07c5.69,0.02,11.28-1.47,16.2-4.33l90.06-52.02c15.32-8.82,20.59-28.38,11.77-43.7
	c-2.82-4.89-6.88-8.95-11.77-11.77L218.67,165.62L218.67,165.62z M298.06,254.57L208,306.56c-5.1,2.95-11.63,1.2-14.57-3.9
	c-0.93-1.62-1.43-3.45-1.43-5.32v-104c-0.04-3.82,2.01-7.36,5.33-9.24c1.63-0.93,3.46-1.43,5.33-1.46c1.88,0,3.72,0.51,5.33,1.47
	l90.06,51.99c5.1,2.95,6.85,9.47,3.9,14.57C301.03,252.29,299.68,253.63,298.06,254.57L298.06,254.57z M479.27,230.9
	c-1.46-5.47-5.03-10.13-9.94-12.95l-36.95-21.33c-10.2-5.89-23.25-2.4-29.14,7.8L295.67,390.75c-3.87,6.69-5.84,14.31-5.71,22.04
	l0.6,35.55c0.2,11.78,9.91,21.17,21.69,20.97c3.5-0.06,6.93-0.98,9.99-2.68l31.09-17.26c6.76-3.76,12.37-9.29,16.23-16L477.13,247.1
	C479.98,242.2,480.75,236.37,479.27,230.9L479.27,230.9z M351.1,422.74c-1.94,3.35-4.75,6.1-8.13,7.98L311.89,448l-0.6-35.55
	c-0.07-3.87,0.92-7.68,2.85-11.03L421.72,215.1l36.95,21.33L351.1,422.74z"/>
</svg>
