<?xml version="1.0" encoding="utf-8"?>
<!-- Generator: Adobe Illustrator 26.0.0, SVG Export Plug-In . SVG Version: 6.00 Build 0)  -->
<svg version="1.1" id="Camada_1" xmlns="http://www.w3.org/2000/svg" xmlns:xlink="http://www.w3.org/1999/xlink" x="0px" y="0px"
	 viewBox="0 0 512 512" style="enable-background:new 0 0 512 512;" xml:space="preserve">
<path style="fill:#007BFF;" d="M251.23,433.12l-6.16,3.08L64,355.73V144.41l177,78.67c2.76,1.23,5.91,1.23,8.67,0l177-78.67v90.25
	c0.06,5.89,4.88,10.62,10.77,10.56c5.81-0.06,10.51-4.75,10.56-10.56V128c0-4.21-2.48-8.03-6.33-9.75l-192-85.33
	c-2.76-1.22-5.91-1.22-8.67,0L49,118.25c-3.85,1.71-6.33,5.53-6.33,9.75v234.67c0,4.21,2.48,8.03,6.33,9.74l192,85.33
	c2.91,1.3,6.25,1.22,9.1-0.2l10.67-5.33c5.28-2.61,7.46-9,4.85-14.29c-2.61-5.28-9-7.46-14.29-4.85
	C251.3,433.09,251.26,433.11,251.23,433.12L251.23,433.12z M245.33,201.66l-75.46-33.54L335,94.73c0.19-0.08,0.35-0.21,0.53-0.3
	L411.07,128L245.33,201.66L245.33,201.66z M245.33,54.34l64.01,28.45L145,155.83c-0.42,0.21-0.83,0.44-1.22,0.7L79.6,128
	L245.33,54.34L245.33,54.34z"/>
<path style="fill:#007BFF;" d="M362.67,245.33C303.76,245.33,256,293.09,256,352s47.76,106.67,106.67,106.67
	S469.33,410.91,469.33,352C469.27,293.12,421.55,245.4,362.67,245.33L362.67,245.33z M362.67,437.33
	c-47.13,0-85.33-38.2-85.33-85.33s38.2-85.33,85.33-85.33S448,304.87,448,352C447.95,399.11,409.77,437.28,362.67,437.33
	L362.67,437.33z"/>
<path style="fill:#007BFF;" d="M397.79,323.12L352,368.92l-19.12-19.12c-4.12-4.21-10.87-4.29-15.08-0.17s-4.29,10.87-0.17,15.08
	c0.06,0.06,0.11,0.12,0.17,0.17l26.67,26.67c4.16,4.17,10.91,4.17,15.08,0l53.33-53.33c4.12-4.21,4.04-10.97-0.17-15.08
	C408.57,319.08,401.94,319.08,397.79,323.12L397.79,323.12z"/>
</svg>
