<?xml version="1.0" encoding="utf-8"?>
<!-- Generator: Adobe Illustrator 26.0.0, SVG Export Plug-In . SVG Version: 6.00 Build 0)  -->
<svg version="1.1" id="Camada_1" xmlns="http://www.w3.org/2000/svg" xmlns:xlink="http://www.w3.org/1999/xlink" x="0px" y="0px"
	 viewBox="0 0 166.8 166.8" style="enable-background:new 0 0 166.8 166.8;" xml:space="preserve">
<g>
	<path style="fill:#007BFF;" d="M129.75,29.47C113.49,1.31,77.33-8.36,49.17,7.88C21.01,24.14,11.31,60.3,27.58,88.43
		c16.25,28.2,52.41,37.86,80.57,21.6C136.33,93.79,146,57.63,129.75,29.47z M36.05,83.57c-13.6-23.5-5.5-53.66,18-67.23
		c23.51-13.55,53.66-5.47,67.25,18.04c13.56,23.5,5.49,53.65-18.03,67.23C79.77,115.2,49.62,107.07,36.05,83.57z M122.97,106.41
		l-25.35,14.66l19.52,33.8l25.35-14.63L122.97,106.41z M145.15,144.83l-25.38,14.64c4.06,7.02,13.02,9.41,20.02,5.37
		C146.8,160.81,149.19,151.85,145.15,144.83z"/>
	<path style="fill:#007BFF;" d="M52.66,51.53h11.55v32.86H52.66V51.53z M72.89,42.86h11.55v41.53H72.89V42.86z M93.1,34.19h11.55
		v50.19H93.1V34.19z"/>
</g>
</svg>
