<?xml version="1.0" encoding="utf-8"?>
<!-- Generator: Adobe Illustrator 26.0.0, SVG Export Plug-In . SVG Version: 6.00 Build 0)  -->
<svg version="1.1"
	 id="Camada_1" shape-rendering="geometricPrecision" image-rendering="optimizeQuality" text-rendering="geometricPrecision"
	 xmlns="http://www.w3.org/2000/svg" xmlns:xlink="http://www.w3.org/1999/xlink" x="0px" y="0px" viewBox="0 0 512 512"
	 style="enable-background:new 0 0 512 512;" xml:space="preserve">
<path style="fill-rule:evenodd;clip-rule:evenodd;fill:#007BFF;" d="M342.83,246.85c-4.8,0-9-3.9-9-9
	c0-54.59-44.69-98.98-99.88-98.98c-12,0-12-18,0-18c55.19,0,99.88-44.69,99.88-99.88c0-12,18-12,18,0
	c0,55.19,44.99,99.88,100.18,99.88c11.7,0,11.7,18,0,18c-56.09,0-100.18,43.49-100.18,98.98
	C351.83,242.95,347.93,246.85,342.83,246.85z M171.87,489.8c-4.8,0-9-3.9-9-9c0-85.48-68.99-154.77-153.87-154.77c-12,0-12-18,0-18
	c84.88,0,153.87-69.29,153.87-154.17c0-11.7,18-11.7,18,0c0,84.88,69.29,154.17,154.17,154.17c11.7,0,11.7,18,0,18
	c-84.88,0-154.17,69.29-154.17,154.77C180.86,485.91,176.97,489.8,171.87,489.8L171.87,489.8z M63.89,317.04
	c50.69,17.1,90.88,57.59,107.98,108.58c17.4-50.99,57.59-91.48,108.28-108.58c-50.99-17.1-91.18-57.29-108.28-108.28
	C154.77,259.75,114.58,299.94,63.89,317.04L63.89,317.04z M413.92,500c-5.1,0-9-4.2-9-9c0-44.09-36.29-80.08-80.98-80.08
	c-12,0-12-18,0-18c44.69,0,80.98-36.29,80.98-80.98c0-12,18-12,18,0c0,44.69,35.99,80.98,80.08,80.98c11.7,0,11.7,18,0,18
	c-44.09,0-80.08,35.99-80.08,80.08C422.92,495.8,419.02,500,413.92,500L413.92,500z M365.33,401.92
	c21.3,9.9,38.69,26.99,48.59,47.99c9.61-21.31,26.68-38.38,47.99-47.99c-21-9.9-38.39-27.29-47.99-48.59
	C404.02,374.93,386.92,392.02,365.33,401.92z M279.25,129.87c28.49,12,51.59,34.79,63.59,62.99c11.7-28.49,34.79-51.29,63.29-62.99
	c-28.49-12-51.59-35.09-63.29-63.59C330.84,95.08,308.04,117.88,279.25,129.87z"/>
</svg>
