<?xml version="1.0" encoding="utf-8"?>
<!-- Generator: Adobe Illustrator 26.0.0, SVG Export Plug-In . SVG Version: 6.00 Build 0)  -->
<svg version="1.1" id="Camada_1" xmlns="http://www.w3.org/2000/svg" xmlns:xlink="http://www.w3.org/1999/xlink" x="0px" y="0px"
	 viewBox="0 0 430 430" style="enable-background:new 0 0 430 430;" xml:space="preserve">
<path style="fill:#007BFF;" d="M429.24,54.95c-1.55-3.74-5.19-6.17-9.24-6.17h-38.78V10c0-4.05-2.44-7.69-6.17-9.24
	c-3.74-1.55-8.04-0.69-10.9,2.17L324.98,42.1c-1.88,1.87-2.93,4.42-2.93,7.07v44.64l-32.85,32.85
	c-31.83-28.42-72.48-43.97-115.54-43.97c-46.42,0-90.04,18.05-122.82,50.83S0,209.92,0,256.35s18.05,90.04,50.83,122.82
	S127.23,430,173.65,430s90.04-18.05,122.82-50.83s50.83-76.4,50.83-122.82c0-43.07-15.55-83.71-43.97-115.54l32.85-32.85h44.64
	c2.65,0,5.2-1.05,7.07-2.93l39.17-39.17C429.93,62.99,430.79,58.69,429.24,54.95L429.24,54.95z M342.05,53.31l19.17-19.17v20.5
	l-19.17,19.17C342.05,73.81,342.05,53.31,342.05,53.31z M327.31,256.35c0,84.73-68.93,153.65-153.65,153.65S20,341.07,20,256.35
	S88.93,102.7,173.65,102.7c38.77,0,74.23,14.44,101.29,38.22l-24.49,24.49c-20.75-17.55-47.56-28.15-76.81-28.15
	c-65.67,0-119.1,53.43-119.1,119.1s53.43,119.1,119.1,119.1s119.1-53.43,119.1-119.1c0-29.24-10.6-56.05-28.15-76.81l24.49-24.49
	C312.87,182.12,327.31,217.57,327.31,256.35z M218.21,256.35c0,24.57-19.99,44.55-44.55,44.55s-44.55-19.99-44.55-44.55
	s19.99-44.55,44.55-44.55c8.67,0,16.76,2.5,23.61,6.8l-30.68,30.68c-3.9,3.9-3.9,10.24,0,14.14c1.95,1.95,4.51,2.93,7.07,2.93
	s5.12-0.98,7.07-2.93l30.68-30.68C215.71,239.58,218.21,247.68,218.21,256.35L218.21,256.35z M211.65,204.21
	c-10.67-7.8-23.8-12.41-38-12.41c-35.59,0-64.55,28.96-64.55,64.55s28.96,64.55,64.55,64.55s64.55-28.96,64.55-64.55
	c0-14.2-4.62-27.33-12.41-38l24.62-24.62c13.96,17.08,22.35,38.89,22.35,62.62c0,54.65-44.46,99.1-99.1,99.1s-99.1-44.46-99.1-99.1
	s44.46-99.1,99.1-99.1c23.73,0,45.53,8.39,62.62,22.35L211.65,204.21L211.65,204.21z M376.69,87.95h-20.5l19.17-19.17h20.5
	L376.69,87.95z"/>
</svg>
