<?xml version="1.0" encoding="utf-8"?>
<!-- Generator: Adobe Illustrator 26.0.0, SVG Export Plug-In . SVG Version: 6.00 Build 0)  -->
<svg version="1.1" id="Camada_1" xmlns="http://www.w3.org/2000/svg" xmlns:xlink="http://www.w3.org/1999/xlink" x="0px" y="0px"
	 viewBox="0 0 511 511" style="enable-background:new 0 0 511 511;" xml:space="preserve">
<path style="fill:#007BFF;" d="M460.9,307V76.65c0-18.81-15.25-34.07-34.07-34.07h-34.07V25.55C392.76,11.44,381.33,0,367.21,0
	h-8.51c-14.11,0-25.55,11.44-25.55,25.55v17.03H256.5V25.55C256.49,11.44,245.06,0,230.95,0h-8.52c-14.11,0-25.55,11.44-25.55,25.55
	v17.03h-68.13V25.55C128.74,11.44,117.3,0,103.19,0h-8.52c-14.1,0-25.55,11.44-25.55,25.55v17.03H35.06
	c-18.81,0-34.07,15.25-34.07,34.07v323.64c0,18.82,15.25,34.07,34.07,34.07h260.86c15.02,46.43,58.66,77.55,107.44,76.62
	c48.79-0.92,91.22-33.68,104.46-80.64C521.07,383.38,502.01,333.28,460.9,307L460.9,307z M350.18,25.55c0-4.71,3.81-8.52,8.52-8.52
	h8.51c4.71,0,8.52,3.81,8.52,8.52v51.1c0,4.7-3.81,8.51-8.52,8.51h-8.51c-4.71,0-8.52-3.81-8.52-8.51
	C350.18,76.65,350.18,25.55,350.18,25.55z M213.91,25.55c0-4.71,3.81-8.52,8.52-8.52l0,0h8.52c4.7,0,8.51,3.81,8.51,8.52v51.1
	c0,4.7-3.81,8.51-8.51,8.51h-8.52c-4.7,0-8.52-3.81-8.52-8.51C213.91,76.65,213.91,25.55,213.91,25.55z M86.16,25.55
	c0-4.71,3.81-8.52,8.52-8.52l0,0h8.52c4.7,0,8.51,3.81,8.51,8.52v51.1c0,4.7-3.81,8.51-8.51,8.51h-8.52c-4.7,0-8.52-3.81-8.52-8.51
	C86.16,76.65,86.16,25.55,86.16,25.55z M18.02,76.65c0-9.41,7.63-17.03,17.03-17.03h34.07v17.03c0,14.11,11.44,25.55,25.55,25.55
	h8.52c14.11,0,25.55-11.44,25.55-25.55V59.62h68.13v17.03c0,14.11,11.44,25.55,25.55,25.55h8.52c14.11,0,25.55-11.44,25.55-25.55
	V59.62h76.65v17.03c0,14.11,11.44,25.55,25.55,25.55h8.51c14.11,0,25.55-11.44,25.55-25.55V59.62h34.07
	c9.41,0,17.03,7.63,17.03,17.03v59.62H18.02L18.02,76.65L18.02,76.65z M35.06,417.32c-9.41,0-17.03-7.63-17.03-17.03V153.3h425.84
	v144.72c-0.27-0.11-0.56-0.19-0.85-0.3c-1.77-0.73-3.58-1.36-5.38-1.98c-0.85-0.31-1.7-0.65-2.62-0.93
	c-2.71-0.85-5.44-1.64-8.2-2.28c-32.94-7.76-67.62-0.04-94.17,20.95c-26.55,20.99-42.04,52.97-42.08,86.81
	c0.03,4.21,0.29,8.41,0.8,12.58c0.09,0.85,0.18,1.7,0.3,2.55c0.09,0.63,0.13,1.28,0.22,1.9H35.06L35.06,417.32z M401.28,493.97
	c-40.63,0.13-76.68-26.05-89.12-64.73c-0.53-1.74-1.06-3.47-1.55-5.61c-2.03-7.62-3.04-15.47-3.02-23.35
	c0.04-28.65,13.16-55.7,35.63-73.47c22.47-17.77,51.82-24.29,79.7-17.72c2.55,0.6,5.06,1.33,7.55,2.15
	c6.15,1.99,12.07,4.62,17.67,7.84c36.78,21.18,54.73,64.44,43.75,105.44C480.9,465.54,443.72,494.02,401.28,493.97L401.28,493.97z"
	/>
<path style="fill:#007BFF;" d="M137.26,178.85h-51.1c-9.4,0-17.03,7.63-17.03,17.03v51.1c0,9.41,7.63,17.04,17.03,17.04h51.1
	c9.41,0,17.03-7.63,17.03-17.04v-51.1C154.29,186.48,146.67,178.85,137.26,178.85z M86.16,246.98v-51.1h51.1v51.1H86.16z
	 M256.49,178.85h-51.1c-9.41,0-17.03,7.63-17.03,17.03v51.1c0,9.41,7.63,17.04,17.03,17.04h51.1c9.41,0,17.03-7.63,17.03-17.04
	v-51.1C273.53,186.48,265.9,178.85,256.49,178.85z M205.39,246.98v-51.1h51.1v51.1H205.39z M137.26,281.06h-51.1
	c-9.4,0-17.03,7.63-17.03,17.03v51.1c0,9.41,7.63,17.03,17.03,17.03h51.1c9.41,0,17.03-7.63,17.03-17.03v-51.1
	C154.29,288.68,146.67,281.06,137.26,281.06z M86.16,349.19v-51.1h51.1v51.1H86.16z M256.49,281.06h-51.1
	c-9.41,0-17.03,7.63-17.03,17.03v51.1c0,9.41,7.63,17.03,17.03,17.03h51.1c9.41,0,17.03-7.63,17.03-17.03v-51.1
	C273.53,288.68,265.9,281.06,256.49,281.06z M205.39,349.19v-51.1h51.1v51.1H205.39z M324.63,264.02h51.1
	c9.41,0,17.03-7.63,17.03-17.04v-51.1c0-9.41-7.63-17.03-17.03-17.03h-51.1c-9.41,0-17.03,7.63-17.03,17.03v51.1
	C307.59,256.39,315.22,264.02,324.63,264.02z M324.63,195.88h51.1v51.1h-51.1V195.88L324.63,195.88z M437.56,360.49l-55.63,61.21
	L365,403.07c-3.17-3.48-8.55-3.73-12.04-0.57c-3.48,3.17-3.73,8.55-0.57,12.04l23.22,25.55c1.61,1.78,3.91,2.8,6.31,2.8
	s4.69-1.01,6.31-2.8l61.93-68.13c2.05-2.25,2.74-5.42,1.81-8.32c-0.93-2.9-3.33-5.08-6.3-5.73
	C442.7,357.25,439.61,358.24,437.56,360.49L437.56,360.49z M43.58,323.64c4.7,0,8.51-3.81,8.51-8.51v-8.52
	c0-4.7-3.81-8.51-8.51-8.51c-4.71,0-8.52,3.81-8.52,8.51v8.52C35.06,319.82,38.87,323.64,43.58,323.64z M77.64,383.25H52.09v-34.07
	c0-4.71-3.81-8.52-8.51-8.52c-4.71,0-8.52,3.81-8.52,8.52v34.07c0,9.41,7.63,17.03,17.03,17.03h25.55c4.7,0,8.51-3.81,8.51-8.51
	C86.16,387.07,82.34,383.25,77.64,383.25z M120.23,383.25h-8.52c-4.7,0-8.51,3.81-8.51,8.52c0,4.7,3.81,8.51,8.51,8.51h8.52
	c4.7,0,8.51-3.81,8.51-8.51S124.93,383.25,120.23,383.25z"/>
</svg>
