<?xml version="1.0" encoding="utf-8"?>
<!-- Generator: Adobe Illustrator 26.0.0, SVG Export Plug-In . SVG Version: 6.00 Build 0)  -->
<svg version="1.1" id="Camada_1" xmlns="http://www.w3.org/2000/svg" xmlns:xlink="http://www.w3.org/1999/xlink" x="0px" y="0px"
	 viewBox="0 0 612 612" style="enable-background:new 0 0 612 612;" xml:space="preserve">
<path style="fill:#007BFF;" d="M573.75,267.75L459,344.25c0-23.22-10.56-43.76-26.89-57.8c38.88-23.43,65.14-65.64,65.14-114.33
	c0-73.94-59.94-133.88-133.88-133.88S229.5,98.19,229.5,172.12c0,37.5,15.51,71.32,40.37,95.62h-70.15
	c18.32-20.33,29.78-46.97,29.78-76.5c0-63.38-51.37-114.75-114.75-114.75S0,127.87,0,191.25c0,34.58,15.62,65.22,39.82,86.25
	C16.2,290.53,0,315.37,0,344.25v153c0,42.25,34.25,76.5,76.5,76.5h306c42.25,0,76.5-34.25,76.5-76.5v-19.12l114.75,95.62
	c21.13,0,38.25-17.12,38.25-38.25V306C612,284.87,594.88,267.75,573.75,267.75z M38.25,191.25c0-42.25,34.25-76.5,76.5-76.5
	s76.5,34.25,76.5,76.5s-34.25,76.5-76.5,76.5S38.25,233.5,38.25,191.25z M420.75,497.25c0,21.11-17.12,38.25-38.25,38.25h-306
	c-21.13,0-38.25-17.12-38.25-38.25v-153c0-21.13,17.12-38.25,38.25-38.25h306c21.13,0,38.25,17.12,38.25,38.25V497.25z
	 M363.38,267.96c-52.94,0-95.83-42.92-95.83-95.83c0-52.94,42.92-95.83,95.83-95.83s95.83,42.9,95.83,95.83
	S416.31,267.96,363.38,267.96z M573.75,535.5L459,439.88V382.5L573.75,306V535.5z"/>
</svg>
