<?xml version="1.0" encoding="utf-8"?>
<!-- Generator: Adobe Illustrator 26.0.0, SVG Export Plug-In . SVG Version: 6.00 Build 0)  -->
<svg version="1.1" id="Camada_1" xmlns="http://www.w3.org/2000/svg" xmlns:xlink="http://www.w3.org/1999/xlink" x="0px" y="0px"
	 viewBox="0 0 64 64" style="enable-background:new 0 0 64 64;" xml:space="preserve">
<path style="fill:#007BFF;" d="M27.19,47.11c-5.5,4.57,2.2,12.66,7.3,8.13C39.5,50.36,32.69,43.12,27.19,47.11z M33.51,54.14
	c-3.35,2.26-8.79-2.46-5.28-5.72C32.04,45.92,37,50.43,33.51,54.14z M15.41,39.75c-7.06,2.29-3.85,12.95,3.23,10.71
	C25.41,47.69,22.57,38.22,15.41,39.75z M18.11,48.99c-4.86,1.29-7.12-6.11-2.28-7.9c2-0.63,4.56,0.75,5.16,2.8
	C21.62,45.91,20.1,48.32,18.11,48.99z M12.39,37.05c3.68-0.61,5.62-5.36,3.44-8.44c-1.48-1.94-4.06-2.66-6.33-1.96
	C2.73,28.91,6.02,37.67,12.39,37.05z M9.95,28.02c1.62-0.54,3.74,0.03,4.73,1.42c1.49,2.01,0.09,5.77-2.5,6.1
	C7.76,35.78,5.57,29.93,9.95,28.02z M19.39,14.3c-7.3,0.28-7.53,10.54,0.06,10.72C26.92,24.56,26.68,14.58,19.39,14.3z M19.41,23
	c-5.18-0.17-5.03-6.97,0-7.54c2.16-0.06,4.01,2.06,3.94,4.02C23.35,21.43,21.32,23,19.41,23z M28.16,17.06
	c0.02,6.74,9.68,7.1,10.36,0.47C38.4,10.83,28.77,10.23,28.16,17.06z M33.18,20.81c-1.87-0.03-3.66-1.79-3.36-3.64
	c0.51-4.86,6.86-4.12,7.15,0.28C36.88,19.26,35.04,20.96,33.18,20.81z M63.98,16.69c-0.38-5.47-3.75-10-7.3-13.89
	c-0.48-0.43-1.13-1.13-1.9-0.75c-0.52,0.32-0.5,1.09-0.5,1.45c0.11,1.88,0.14,4.02-0.46,5.76c-0.38,1-0.98,1.77-1.77,2.66
	c-1.61,1.79-2.9,4.24-2.65,6.72c0.05,1.95,1.09,3.67,2.57,4.83c-0.72,3.18-1.29,6.39-1.73,9.62v0.03c-0.36,2.67-0.62,5.35-0.78,8.04
	c-2.11-1.02-4.63-1.43-6.35-2.77c-3.13-2.63-1.64-6.12,0.5-9.01c6.96-9.07,1.79-19.33-8.21-22.9c-7.17-2.93-15.48-1.07-21.87,2.91
	C-8.25,22.8-2.75,57,22.94,61.45c9.25,1.22,19.54-0.37,26.65-6.78c0.01,0,0.01-0.01,0.02-0.01c0.05,0.57,0.08,1.15,0.13,1.72
	c1.16,8.98,4.33,6.12,6.48-0.32c2.16-5.9,3.21-12.12,3.88-18.33c0.53-4.64,0.64-9.31,0.5-13.96C62.78,22.26,64.21,19.61,63.98,16.69
	z M23.27,59.58C-9.96,53.44-3.21,6.09,29.72,6.7C38.25,6.93,48,14.74,45.04,23.94c-1.04,3.58-4.35,6.18-5,9.96
	c-0.47,4.78,3.67,6.8,7.47,7.81c0.68,0.19,1.31,0.48,1.87,0.86c-0.15,3.42-0.13,6.84,0.08,10.25
	C43.47,59.74,31.81,61.38,23.27,59.58z M53.8,58.44c-0.39,0.88-0.89,1.88-1.43,2.32c-0.03,0.02-0.03,0.02-0.05,0.04
	c0,0.02,0.02,0.02,0.02,0.04c-0.02-0.04-0.08-0.02-0.02-0.04c-1.74-3.13-1.45-7.17-1.7-10.69c-0.12-5.25,0.23-10.49,0.93-15.68
	c2.18,1.03,4.73,1.27,7.08,0.77C57.92,43.11,56.39,50.94,53.8,58.44z M58.78,33.37c-1.17,0.1-2.34,0.12-3.48-0.02
	c-1.18-0.12-2.34-0.41-3.49-0.77c0.42-2.77,0.94-5.53,1.55-8.26c0.15,0.07,0.3,0.15,0.45,0.21c1.84,0.75,3.67,0.67,5.27,0.04
	C59.1,27.51,59,30.45,58.78,33.37z M60.11,22.2c-3.11,2.59-9.05,0.68-9.26-3.59c-0.23-4.24,4.43-6.56,4.54-10.75
	c0.2-1.39-0.04-3.72-0.07-4.86c0.04,0.02,0.05,0.04,0.07,0.05C59.7,7.3,65.94,17.08,60.11,22.2z"/>
</svg>
