<?xml version="1.0" encoding="utf-8"?>
<!-- Generator: Adobe Illustrator 26.0.0, SVG Export Plug-In . SVG Version: 6.00 Build 0)  -->
<svg version="1.1" id="Camada_1" xmlns="http://www.w3.org/2000/svg" xmlns:xlink="http://www.w3.org/1999/xlink" x="0px" y="0px"
	 viewBox="0 0 512 512" style="enable-background:new 0 0 512 512;" xml:space="preserve">
<path style="fill:#007BFF;" d="M291.29,59.15c-27.43,0-54.73,5.36-80.01,15.59c-0.12-0.13-0.23-0.27-0.36-0.39l-29.24-29.24
	c-1.5-1.5-3.54-2.34-5.66-2.34s-4.16,0.84-5.66,2.34L157.3,58.18c-3.35-1.64-6.79-3.07-10.32-4.28V35.42c0-4.42-3.58-8-8-8H97.63
	c-4.42,0-8,3.58-8,8V53.9c-3.53,1.21-6.97,2.64-10.32,4.28L66.24,45.11c-1.5-1.5-3.53-2.34-5.66-2.34s-4.16,0.84-5.66,2.34
	L25.69,74.35c-1.5,1.5-2.34,3.54-2.34,5.66s0.84,4.16,2.34,5.66l13.07,13.07c-1.64,3.35-3.07,6.79-4.28,10.32H16c-4.42,0-8,3.58-8,8
	v41.35c0,4.42,3.58,8,8,8h18.48c1.21,3.52,2.63,6.97,4.28,10.32L25.69,189.8c-1.5,1.5-2.34,3.54-2.34,5.66s0.84,4.16,2.34,5.66
	l29.24,29.24c1.5,1.5,3.53,2.34,5.66,2.34s4.16-0.84,5.66-2.34l13.07-13.07c1.86,0.91,3.76,1.76,5.68,2.54
	c-4.26,16.94-6.42,34.44-6.42,52.06c0,117.29,95.42,212.71,212.71,212.71S504,389.16,504,271.87S408.58,59.15,291.29,59.15z
	 M487.82,263.76h-65.05c-0.92-40.22-8.7-78.66-22.58-111.7c11.99-4.4,23.32-9.55,33.82-15.41
	C465.72,170.09,485.82,214.63,487.82,263.76L487.82,263.76z M96.05,247.87c0.51,0.1,1.04,0.16,1.59,0.16h41.35c4.42,0,8-3.58,8-8
	v-18.49c3.52-1.21,6.97-2.63,10.32-4.28l5.83,5.83c-1.91,13.27-3.03,26.93-3.34,40.66H94.76C94.97,258.44,95.4,253.14,96.05,247.87z
	 M210.92,189.79l-13.07-13.07c1.64-3.35,3.07-6.79,4.28-10.32h18.49c2.13,0,4.07-0.84,5.5-2.2c18.47,3.64,37.64,5.71,57.17,6.15
	v93.42h-107.5c0.26-10.55,1.01-21.05,2.25-31.34c1.37-0.36,2.63-1.07,3.64-2.07l29.24-29.24
	C214.04,197.98,214.04,192.92,210.92,189.79L210.92,189.79z M299.29,170.34c30.08-0.68,59.19-5.22,85.68-13.21
	c13.36,31.35,20.87,68.07,21.8,106.63H299.29V170.34L299.29,170.34z M299.29,154.34V75.65c30.23,3.6,58.48,27.46,78.83,66.85
	C353.72,149.62,326.97,153.68,299.29,154.34L299.29,154.34z M283.29,75.65v78.69c-18.7-0.44-37.03-2.46-54.68-5.98v-31.31
	c0-2.63-1.27-4.95-3.23-6.41C242.52,90.3,262.62,78.15,283.29,75.65z M283.29,279.76v93.69c-29.44,0.67-58.7,5.07-85.69,13.18
	c-13.38-31.4-20.9-68.29-21.81-106.87H283.29z M283.29,389.25v78.84c-30.25-3.6-58.51-27.46-78.85-66.89
	C229.34,393.89,256.22,389.9,283.29,389.25z M299.29,468.09v-78.84c27.06,0.65,53.95,4.64,78.85,11.95
	C357.79,440.62,329.53,464.49,299.29,468.09L299.29,468.09z M299.29,373.44v-93.69h107.49c-0.9,38.61-8.42,75.45-21.81,106.87
	C357.97,378.51,328.73,374.12,299.29,373.44z M421.98,124.98c-8.92,4.7-18.45,8.87-28.48,12.49c-10.65-21.21-23.51-38.57-37.86-51.5
	C380.35,94.55,402.83,107.93,421.98,124.98z M206.3,109.05h-4.17c-1.21-3.53-2.64-6.97-4.28-10.32l0.84-0.84
	c0.71-0.14,1.42-0.38,2.1-0.74c8.6-4.46,17.42-8.25,26.42-11.36C219.81,92.41,212.8,100.18,206.3,109.05z M72.19,201.76
	l-11.61,11.61l-17.92-17.92l11.61-11.61c2.57-2.57,3.08-6.54,1.26-9.68c-3.25-5.58-5.73-11.57-7.38-17.81
	c-0.93-3.51-4.1-5.95-7.73-5.95H24v-25.35h16.42c3.63,0,6.8-2.44,7.73-5.95c1.65-6.24,4.14-12.23,7.38-17.81
	c1.83-3.14,1.31-7.11-1.26-9.68L42.66,80l17.92-17.92l11.61,11.61c2.57,2.57,6.54,3.08,9.68,1.26c5.58-3.24,11.57-5.73,17.81-7.38
	c3.51-0.93,5.95-4.1,5.95-7.73V43.42h25.35v16.42c0,3.63,2.44,6.8,5.95,7.73c6.24,1.65,12.23,4.14,17.81,7.38
	c3.14,1.83,7.11,1.31,9.68-1.26l11.61-11.61L193.95,80l-11.61,11.61c-2.57,2.57-3.08,6.54-1.26,9.68
	c3.25,5.58,5.73,11.57,7.38,17.81c0.93,3.51,4.1,5.95,7.73,5.95h16.41v25.35h-16.4c-3.63,0-6.8,2.44-7.73,5.95
	c-1.65,6.24-4.14,12.23-7.38,17.81c-1.82,3.14-1.31,7.11,1.26,9.68l11.61,11.61l-17.92,17.92l-11.61-11.61
	c-2.57-2.57-6.54-3.09-9.68-1.26c-5.58,3.25-11.57,5.73-17.81,7.38c-3.51,0.93-5.95,4.1-5.95,7.73v16.41h-25.35V215.6
	c0-3.63-2.44-6.8-5.95-7.73c-6.24-1.65-12.23-4.14-17.81-7.38C78.73,198.67,74.76,199.2,72.19,201.76L72.19,201.76z M94.74,279.76
	h65.04c0.9,40.24,8.7,78.84,22.59,111.93c-11.9,4.36-23.24,9.49-33.83,15.4C116.8,373.59,96.7,328.97,94.74,279.76L94.74,279.76z
	 M160.59,418.75c9-4.74,18.52-8.92,28.46-12.53c10.65,21.23,23.51,38.59,37.86,51.53C202.21,449.17,179.73,435.8,160.59,418.75z
	 M393.52,406.23c9.93,3.6,19.46,7.78,28.46,12.53c-19.14,17.05-41.62,30.42-66.33,39C370.01,444.82,382.87,427.45,393.52,406.23
	L393.52,406.23z M434.02,407.09c-10.59-5.91-21.93-11.05-33.83-15.4c13.9-33.11,21.69-71.66,22.59-111.93h65.05
	C485.88,328.97,465.77,373.6,434.02,407.09L434.02,407.09z M178.78,137.73c0-33.35-27.13-60.48-60.48-60.48
	s-60.48,27.13-60.48,60.48s27.13,60.48,60.48,60.48S178.78,171.07,178.78,137.73z M73.83,137.73c0-24.53,19.95-44.48,44.48-44.48
	s44.48,19.95,44.48,44.48s-19.95,44.48-44.48,44.48S73.83,162.25,73.83,137.73z"/>
</svg>
