<?xml version="1.0" encoding="utf-8"?>
<!-- Generator: Adobe Illustrator 26.0.0, SVG Export Plug-In . SVG Version: 6.00 Build 0)  -->
<svg version="1.1" id="Camada_1" xmlns="http://www.w3.org/2000/svg" xmlns:xlink="http://www.w3.org/1999/xlink" x="0px" y="0px"
	 viewBox="0 0 511 511" style="enable-background:new 0 0 511 511;" xml:space="preserve">
<path style="fill:#007BFF;" d="M507.43,4.57c-2.97-2.97-7.04-4.65-11.22-4.57c-1.83,0.02-45.44,0.73-102.94,14.97
	c-53.38,13.22-129.19,41.15-187.2,99.16c-6.74,6.74-13.06,13.73-19.02,20.9c-47.03-6.38-92.23,6.83-131.84,38.81
	c-33.77,27.26-51.5,58.53-52.23,59.85c-2.62,4.68-2.65,10.37-0.09,15.08c2.57,4.71,7.37,7.76,12.72,8.1l88.48,5.52l-24.24,24.24
	c-2.92,2.93-4.57,6.89-4.57,11.03c0,4.13,1.64,8.1,4.57,11.02l12.25,12.25c-0.17,0.17-0.35,0.33-0.51,0.5
	C39.04,373.98,37.41,455.4,37.37,458.84c-0.05,4.2,1.59,8.25,4.57,11.22c2.92,2.92,6.89,4.57,11.02,4.57h0.2
	c3.44-0.04,84.87-1.67,137.41-54.22c0.17-0.17,0.34-0.34,0.5-0.51l12.26,12.26c6.08,6.09,15.95,6.09,22.04,0.01
	c0,0,0.01-0.01,0.01-0.01l24.24-24.25l5.52,88.48c0.33,5.35,3.39,10.15,8.1,12.72c2.32,1.27,4.89,1.9,7.46,1.9
	c2.62,0,5.25-0.66,7.62-1.99c1.32-0.74,32.58-18.47,59.85-52.23c31.98-39.61,45.2-84.81,38.81-131.84
	c7.16-5.95,14.15-12.28,20.89-19.02c58.01-58,85.94-133.81,99.16-187.2C511.27,61.24,511.97,17.62,512,15.79
	C512.05,11.59,510.4,7.54,507.43,4.57z M112.92,297.65l26.63-26.63l101.43,101.43l-26.63,26.63
	C214.35,399.08,112.92,297.65,112.92,297.65z M113.64,343.48l0.51-0.51l54.88,54.88c-0.17,0.17-0.34,0.34-0.5,0.51
	c-30.3,30.3-74.32,40.26-98.41,43.52C73.38,417.78,83.34,373.78,113.64,343.48z M266.75,354.14l-108.89-108.9
	c15.5-37.9,37.89-76.69,70.27-109.07C271.24,93.06,325.79,68,371.2,53.58l87.22,87.22c-14.42,45.41-39.47,99.95-82.59,143.06
	C343.06,316.63,303.69,338.97,266.75,354.14z M467.76,107.1L404.9,44.23c31.56-7.53,58.58-10.73,74.95-12.08
	C478.49,48.53,475.29,75.55,467.76,107.1L467.76,107.1z M75.58,197.47c27.79-22.19,57.8-33.18,89.57-32.89
	c-14.84,22.45-26.58,45.72-35.83,68.14l-83.88-5.24C52.89,218.36,62.99,207.52,75.58,197.47z M314.53,436.42
	c-10.05,12.58-20.89,22.69-30.02,30.15l-5.24-83.89c22.42-9.26,45.69-20.99,68.14-35.83C347.71,378.62,336.72,408.63,314.53,436.42
	L314.53,436.42z"/>
<path style="fill:#007BFF;" d="M372.86,139.13c-11.86-11.86-27.63-18.39-44.41-18.39s-32.55,6.53-44.41,18.39
	c-24.49,24.49-24.49,64.33,0,88.81c11.86,11.86,27.63,18.4,44.41,18.4c16.77,0,32.54-6.53,44.41-18.4
	c11.86-11.86,18.39-27.63,18.39-44.41C391.26,166.77,384.73,150.99,372.86,139.13z M350.82,205.9c-5.97,5.98-13.91,9.26-22.36,9.26
	s-16.39-3.29-22.37-9.26c-12.33-12.33-12.33-32.39,0-44.72c5.98-5.97,13.92-9.26,22.37-9.26c8.44,0,16.39,3.29,22.36,9.26
	s9.26,13.91,9.26,22.36S356.79,199.93,350.82,205.9L350.82,205.9z"/>
</svg>
