<?xml version="1.0" encoding="utf-8"?>
<!-- Generator: Adobe Illustrator 26.0.0, SVG Export Plug-In . SVG Version: 6.00 Build 0)  -->
<svg version="1.1" id="Camada_1" xmlns="http://www.w3.org/2000/svg" xmlns:xlink="http://www.w3.org/1999/xlink" x="0px" y="0px"
	 viewBox="0 0 512 512" style="enable-background:new 0 0 512 512;" xml:space="preserve">
<g>
	<path style="fill:#007BFF;" d="M349.65,490.6L211.19,352.14l32.4-32.4c7.45-7.74,20.49-8.7,29-2.22
		c-3.11,40.27,47.19,63.75,76.32,35.75c30.72-28.85,8.1-80.81-33.87-78.19c-6.49-8.51-5.53-21.55,2.22-29.01l32.4-32.4l32.43,32.43
		c15.6,15.77,41.34,14.01,55.54-2.71c-3.75-14.59,3.41-30.8,17.69-36.44l-5.7-13.95c-17.7,7.07-29.34,25.81-27.93,44.65
		c-8.72,6.4-21.07,5.66-28.94-2.22l-43.08-43.08l-43.06,43.06c-15.76,15.21-13.96,41.79,2.71,55.6c30.8-7.64,52.05,28.97,29.25,51.3
		c-22.83,20.76-57.62-0.77-50.03-30.52c-13.82-16.67-40.39-18.47-55.6-2.71l-43.06,43.06l159.77,159.77l31.17-31.17l-10.65-10.65
		L349.65,490.6L349.65,490.6z"/>
	<path style="fill:#007BFF;" d="M381.23,458.95l10.51-10.51l10.65,10.65l-10.51,10.51L381.23,458.95z M459.83,293.28
		c0-4.81,1.51-9.38,4.31-13.18c61.43,1.12,64.92-86.89,3.53-90.48l1.57,15.12c15.21,0.97,27.99,14.38,27.92,29.7
		c0.56,20.29-19.47,34.82-38.75,29.72c-16.66,13.8-18.46,40.35-2.71,55.54l32.43,32.43l-85.26,85.26l10.65,10.65l95.91-95.91
		l-43.08-43.08C462.15,304.84,459.83,299.24,459.83,293.28z M165.16,226.04h60.81v-60.82c0-11.2,8.26-20.5,19-22.14
		c27.85,31.52,80.55,10.78,79.24-31.34c-0.79-40.39-52.96-59.36-79.24-28.69c-10.74-1.64-19-10.94-19-22.14V0.09H0v90.36h15.07
		V15.16H210.9v45.76c-0.11,22.24,19.37,39.24,41.29,37.46c15.66-26.41,55.5-17.02,56.96,13.8c0.33,31.92-40.59,42.77-56.96,15.59
		c-21.92-1.78-41.4,15.22-41.29,37.46v45.76h-45.74c-22.25-0.11-39.26,19.38-37.48,41.31c27.18,16.37,16.32,57.3-15.59,56.95
		c-30.82-1.46-40.2-41.29-13.8-56.95c1.78-21.93-15.23-41.43-37.48-41.31H15.07V105.51H0v120.53h60.81
		c11.2,0,20.52,8.26,22.16,19.02c-31.16,26.73-11.02,79.67,30.03,79.26c41.45,0.11,61.04-51.89,30-79.26
		C144.64,234.31,153.95,226.04,165.16,226.04z M234.86,351.67l10.65-10.65l10.65,10.65l-10.65,10.65L234.86,351.67L234.86,351.67z
		 M256.17,372.97l10.65-10.65l10.65,10.65l-10.65,10.65L256.17,372.97z"/>
	<path style="fill:#007BFF;" d="M30.29,30.18h15.07v15.07H30.29V30.18z M30.29,60.31h15.07v15.07H30.29V60.31z"/>
</g>
</svg>
