<?xml version="1.0" encoding="utf-8"?>
<!-- Generator: Adobe Illustrator 26.0.0, SVG Export Plug-In . SVG Version: 6.00 Build 0)  -->
<svg version="1.1" id="Camada_1" xmlns="http://www.w3.org/2000/svg" xmlns:xlink="http://www.w3.org/1999/xlink" x="0px" y="0px"
	 viewBox="0 0 682.67 682.67" style="enable-background:new 0 0 682.67 682.67;" xml:space="preserve">
<g transform="matrix(1.33333 0 0 -1.33333 0 682.667)">
	<g>
		<defs>
			<rect id="SVGID_1_" x="-199.11" y="-199.11" width="910.22" height="910.22"/>
		</defs>
		<clipPath id="SVGID_00000003824131728612783720000002622470824348989598_">
			<use xlink:href="#SVGID_1_"  style="overflow:visible;"/>
		</clipPath>
		<g style="clip-path:url(#SVGID_00000003824131728612783720000002622470824348989598_);">
			<path style="fill:#007BFF;stroke:#007BFF;stroke-width:1.3333;stroke-miterlimit:13.3333;" d="M201.36,314.43
				c-1.55,1-3.39,1.57-5.36,1.57c-5.52,0-10-4.48-10-10c0-2.62,1.01-5.01,2.66-6.79c1.89-2.05,4.55-3.21,7.34-3.21
				c5.52,0,10,4.48,10,10C206,309.55,204.15,312.66,201.36,314.43"/>
			
				<path style="fill:none;stroke:#007BFF;stroke-width:35.5559;stroke-linecap:round;stroke-linejoin:round;stroke-miterlimit:7.1106;" d="
				M256,502v-66 M256,76V10 M66.29,425.71l42.43-42.43 M403.28,118.72l42.43-42.43 M445.71,425.71l-42.43-42.43 M108.72,118.72
				L66.29,76.29 M476,256c0,0-87.45-130-220-130S36,256,36,256s87.45,130,220,130S476,256,476,256z"/>
			
				<path style="fill:none;stroke:#007BFF;stroke-width:35.5559;stroke-linecap:round;stroke-linejoin:round;stroke-miterlimit:7.1106;" d="
				M227.41,330.74c0.36,0.14,0.72,0.27,1.08,0.4c0.4,0.15,0.8,0.29,1.2,0.43c0.36,0.13,0.72,0.25,1.09,0.37
				c1.09,0.37,2.2,0.71,3.31,1.02c0.61,0.18,1.23,0.35,1.86,0.51c0.66,0.17,1.32,0.33,1.98,0.48c0.62,0.14,1.23,0.28,1.85,0.4
				c0.5,0.11,1,0.21,1.51,0.3c0.44,0.08,0.88,0.16,1.32,0.23c0.24,0.05,0.49,0.09,0.74,0.12c0.45,0.08,0.9,0.14,1.35,0.2
				c0.12,0.02,0.23,0.04,0.35,0.05c0.38,0.06,0.77,0.11,1.16,0.16c0.42,0.05,0.84,0.1,1.26,0.14l0.6,0.06
				c0.43,0.05,0.87,0.09,1.3,0.12c0.23,0.02,0.46,0.04,0.69,0.05c0.29,0.03,0.59,0.05,0.88,0.06c0.43,0.03,0.87,0.05,1.3,0.07
				c0.56,0.03,1.12,0.05,1.69,0.06c0.68,0.02,1.38,0.03,2.07,0.03c44.18,0,80-35.82,80-80c0-13.81-3.5-26.8-9.66-38.13
				c-0.92-1.7-1.9-3.36-2.95-4.99c-0.64-1-1.3-1.98-1.98-2.95c-0.07-0.1-0.14-0.19-0.21-0.29c-1.46-2.06-3.02-4.05-4.68-5.95
				c-1.25-1.45-2.56-2.86-3.92-4.22c-1.23-1.23-2.5-2.43-3.81-3.57c-5.52-4.86-11.68-8.93-18.31-12.1c-1.1-0.53-2.21-1.03-3.34-1.51
				c-2.4-1.02-4.86-1.91-7.35-2.69c-2.51-0.78-5.06-1.44-7.67-1.97c-5.3-1.09-10.71-1.63-16.12-1.63c-44.18,0-80,35.82-80,80
				c0,0.69,0.01,1.38,0.03,2.06c0.01,0.56,0.03,1.11,0.06,1.67c0.03,0.67,0.06,1.33,0.11,2c0.04,0.48,0.07,0.96,0.12,1.44l0.03,0.35
				c0.05,0.57,0.11,1.14,0.18,1.7v0.02c0.07,0.6,0.14,1.2,0.23,1.8c0.06,0.45,0.12,0.9,0.2,1.35c0.08,0.6,0.18,1.18,0.29,1.77
				c0.02,0.16,0.05,0.31,0.08,0.47"/>
			
				<path style="fill:none;stroke:#007BFF;stroke-width:35.5559;stroke-linecap:round;stroke-linejoin:round;stroke-miterlimit:7.1106;" d="
				M256,226c-16.54,0-30,13.46-30,30s13.46,30,30,30s30-13.46,30-30S272.54,226,256,226z"/>
		</g>
	</g>
</g>
</svg>
